<?xml version="1.0" encoding="UTF-8"?>
<svg width="85px" height="55px" viewBox="0 0 85 55" version="1.1" xmlns="http://www.w3.org/2000/svg" xmlns:xlink="http://www.w3.org/1999/xlink">
    <!-- Generator: Sketch 54.1 (76490) - https://sketchapp.com -->
    <title>payment_paypal</title>
    <desc>Created with Sketch.</desc>
    <g id="Symbols" stroke="none" stroke-width="1" fill="none" fill-rule="evenodd">
        <g id="Payment-Icon-/-PayPal">
            <g id="payment_paypal">
                <rect id="Card" stroke="#CCCCCC" fill="#FFFFFF" x="0.5" y="0.5" width="84" height="54" rx="3"></rect>
                <g id="paypal" transform="translate(8.000000, 19.000000)">
                    <path d="M13.9575203,6.37283038 C14.0300296,6.82063896 14.0060728,7.35365424 13.8874066,7.95688615 C13.7505332,8.65100522 13.5293318,9.25549945 13.2305103,9.75001392 C12.9558053,10.205712 12.6057162,10.5837773 12.1899853,10.8766359 C11.7931005,11.1549778 11.3216301,11.3662589 10.7885107,11.5013273 C10.2718418,11.6343444 9.68282316,11.7014053 9.0367873,11.7014053 L8.6205773,11.7014053 C8.32303347,11.7014053 8.03395438,11.8071247 7.80700334,11.9971041 C7.57941346,12.1908704 7.42896456,12.4556424 7.38264802,12.7451874 L7.35134443,12.9135495 L6.82445388,16.211838 L6.80049705,16.3330208 C6.79426827,16.3712061 6.78356755,16.3904565 6.76743662,16.4033953 C6.75322223,16.4153873 6.73277907,16.4229613 6.71281505,16.4229613 L4.142886,16.4229613 L4.4412284,14.5517273 L3.85268893,14.5383152 L3.76085441,15.1139338 L0.458964346,15.1139338 C0.177232022,15.1139338 -0.0382197389,14.8649409 0.00570111665,14.588808 L2.23336691,0.638103547 C2.29150215,0.270294604 2.61252368,0 2.98880563,0 L8.33724786,0 C10.1795281,0 11.6191739,0.384061334 12.4169363,1.28157196 C13.1404326,2.09655832 13.3518916,2.99675138 13.1421895,4.31887542 C12.9704988,4.22956617 12.7844341,4.15224897 12.585273,4.0858193 C12.5787248,4.1341031 12.572496,4.18191353 12.5645104,4.23161744 L12.5578025,4.27500975 L12.5578025,4.65591528 L12.8575823,4.82364625 C13.110247,4.95603223 13.3110053,5.10751081 13.4649678,5.28108003 C13.7214656,5.57015166 13.8874066,5.93732945 13.9575203,6.37283038 M48.217225,7.86962817 L41.9759916,16.7702575 C41.8750535,16.9143199 41.7084737,17 41.530714,17 L39.6564913,17 C39.3923273,17 39.2385244,16.7065102 39.391369,16.4930201 L41.3345874,13.7828157 L39.2675921,7.79010191 C39.1963604,7.58166107 39.3519201,7.3654885 39.576156,7.3654885 L41.4200334,7.3654885 C41.6596017,7.3654885 41.8710607,7.52091184 41.9400563,7.74734077 L43.0371195,11.3667323 L45.6252557,7.60028031 C45.7266729,7.45337764 45.8948499,7.3654885 46.0738873,7.3654885 L47.9503459,7.3654885 C48.2132322,7.3654885 48.3667156,7.65661141 48.217225,7.86962817 M35.4022373,10.9561622 C35.222082,12.0100429 34.3754476,12.7175741 33.2954737,12.7175741 C32.7532508,12.7175741 32.3197918,12.5457406 32.0415732,12.2202194 C31.7655905,11.8967495 31.6606596,11.4366333 31.7485013,10.923973 C31.9166782,9.87892851 32.7776867,9.14835991 33.8412103,9.14835991 C34.3712951,9.14835991 34.802518,9.32240249 35.0863266,9.65076389 C35.3709338,9.98259667 35.4838503,10.4457109 35.4022373,10.9561622 M38.0052268,7.3654885 L36.137712,7.3654885 C35.9787984,7.3654885 35.8414459,7.48035976 35.8168502,7.63641426 L35.7341193,8.1523882 L35.6036344,7.96540682 C35.1992431,7.38568564 34.2978275,7.19191929 33.3981686,7.19191929 C31.3345273,7.19191929 29.5721031,8.73605413 29.2288816,10.9020401 C29.0503234,11.9824296 29.304106,13.0156398 29.924588,13.735952 C30.4936425,14.3985131 31.3076956,14.6744881 32.2765098,14.6744881 C33.9391139,14.6744881 34.8611324,13.6183983 34.8611324,13.6183983 L34.7779224,14.1310587 C34.7466188,14.3270341 34.8994633,14.5026546 35.0984647,14.5026546 L36.7803939,14.5026546 C37.0479119,14.5026546 37.2737449,14.3112551 37.3157492,14.0504279 L38.3251304,7.73613767 C38.3570728,7.54174015 38.2048671,7.3654885 38.0052268,7.3654885 M26.7987007,7.40998533 C26.5854849,8.79222744 25.5163715,8.79222744 24.4825544,8.79222744 L23.8941746,8.79222744 L24.3070307,6.21062206 C24.3316263,6.05456756 24.46834,5.93953851 24.6280522,5.93953851 L24.8978061,5.93953851 C25.6019772,5.93953851 26.2662202,5.93953851 26.6094418,6.33622306 C26.8141928,6.57275056 26.8768,6.92430712 26.7987007,7.40998533 M29.1911895,4.78530324 C28.6369882,4.14199261 27.6539596,3.80179695 26.3487915,3.80179695 L22.4492583,3.80179695 C22.182539,3.80179695 21.9555879,3.99335425 21.913903,4.25355028 L20.336745,14.1326366 C20.3054414,14.3275075 20.458286,14.5032857 20.6584054,14.5032857 L22.5200108,14.5032857 C22.7868899,14.5032857 23.013841,14.3117285 23.0553661,14.0509013 L23.4808394,11.386456 C23.5218855,11.1256288 23.7494754,10.9340715 24.0157156,10.9340715 L25.2501312,10.9340715 C27.8187826,10.9340715 29.3012312,9.70599046 29.6885333,7.27239228 C29.862939,6.20778184 29.6958801,5.37117823 29.1911895,4.78530324" id="Fill-1" fill="#253B80"></path>
                    <path d="M13.9088822,4.75399615 C14.5851544,5.53105887 14.7173996,6.63596988 14.4619366,7.95918026 C13.8499658,11.1268367 11.7568481,12.2213677 9.08295991,12.2213677 L8.67022801,12.2213677 C8.34333675,12.2213677 8.06522577,12.4607464 8.01438658,12.7868381 L7.98096892,12.9693664 L7.46133217,16.2943197 L7.43424961,16.4356474 C7.38277691,16.7606212 7.10514106,17 6.77840818,17 L4.01852099,17 C3.77414443,17 3.58773406,16.7801037 3.62558629,16.5360939 L3.85111592,15.0919964 L4.647755,9.99733305 C4.70603794,9.62556938 5.02089251,9.35201648 5.39466352,9.35201648 L6.95072295,9.35201648 C10.0069345,9.35201648 12.3997026,8.10114671 13.0992562,4.48028355 C13.1195285,4.37313002 13.1375836,4.26885095 13.1534213,4.16680757 C13.4502208,4.32522233 13.7042584,4.51972755 13.9088822,4.75399615 M69.9959159,4.01861312 L68.4308289,14.0161494 C68.3902843,14.2801208 68.1652298,14.4739872 67.8999474,14.4739872 L66.3042936,14.4739872 C66.1069551,14.4739872 65.9555462,14.2959303 65.9865882,14.0987103 L67.5736896,3.91768759 C67.5980798,3.7597519 67.7336509,3.64333622 67.891395,3.64285714 L69.6780521,3.64285714 C69.8755489,3.64285714 70.0271162,3.82123344 69.9959159,4.01861312 M62.8093762,10.8839447 C62.6318349,11.9505295 61.7911669,12.6665898 60.7202179,12.6665898 C60.1836348,12.6665898 59.7526895,12.4926849 59.4767958,12.1632397 C59.2032777,11.8358705 59.1001739,11.3702077 59.186173,10.8513675 C59.3542115,9.79388507 60.2067579,9.05435004 61.261394,9.05435004 C61.7870491,9.05435004 62.2145101,9.23065033 62.4962637,9.56297 C62.7794428,9.89864321 62.8914157,10.3673401 62.8093762,10.8839447 M65.3906135,7.24998676 L63.5399718,7.24998676 C63.3811191,7.24998676 63.2458647,7.36624276 63.2222664,7.52417844 L63.1402269,8.04653194 L63.0101989,7.85713688 C62.6093453,7.27042738 61.7159376,7.07432524 60.8236384,7.07432524 C58.7774005,7.07432524 57.0301794,8.63707406 56.6899844,10.8291702 C56.5133934,11.9225834 56.7637883,12.9682486 57.3790851,13.6972439 C57.944493,14.3679515 58.7507931,14.6472534 59.7115113,14.6472534 C61.3602216,14.6472534 62.2745352,13.5782731 62.2745352,13.5782731 L62.1920205,14.0971134 C62.1609785,14.2956109 62.3125458,14.4733485 62.5109929,14.4733485 L64.1783917,14.4733485 C64.4424071,14.4733485 64.6674616,14.279482 64.7086397,14.0156703 L65.710061,7.62510397 C65.7406279,7.42852275 65.5890605,7.24998676 65.3906135,7.24998676 M54.2783694,7.29501999 C54.0674105,8.69408421 53.0073896,8.69408421 51.9815782,8.69408421 L51.3985904,8.69408421 L51.8084715,6.08119884 C51.8328617,5.92326315 51.9674826,5.80700716 52.1263353,5.80700716 L52.393835,5.80700716 C53.0914881,5.80700716 53.7508138,5.80700716 54.0911672,6.20831391 C54.2942072,6.44769266 54.3558161,6.8034871 54.2783694,7.29501999 M56.6497565,4.638858 C56.1006615,3.98779251 55.1264812,3.64333622 53.8322199,3.64333622 L49.9647985,3.64333622 C49.7007831,3.64333622 49.4757286,3.83720267 49.4343921,4.10069496 L47.8704138,14.0987103 C47.8393718,14.2959303 47.9909391,14.4739872 48.1881191,14.4739872 L50.1727482,14.4739872 C50.3570997,14.4739872 50.5148437,14.3382488 50.5436684,14.1534848 L50.9876007,11.3195853 C51.0283037,11.0554542 51.2538334,10.8617475 51.5178487,10.8617475 L52.7414737,10.8617475 C55.2892933,10.8617475 56.7588786,9.61870262 57.1434193,7.155928 C57.3170011,6.07832438 57.1500712,5.23179551 56.6497565,4.638858" id="Fill-3" fill="#179BD7"></path>
                    <path d="M12.5490948,3.88380495 C12.4430686,3.85400951 12.3334243,3.82679837 12.2211057,3.80247556 C12.1083152,3.77860881 11.9925359,3.75732635 11.8736103,3.73893223 C11.4567417,3.67386872 11.0002311,3.64285714 10.5110004,3.64285714 L6.38211301,3.64285714 C6.28049145,3.64285714 6.18390377,3.66520372 6.09738386,3.70533635 C5.90704006,3.79381056 5.76546202,3.96802266 5.73116868,4.18130327 L4.85291294,9.55740361 L4.82758621,9.71428571 C4.88547589,9.36038888 5.19820604,9.09998283 5.5694551,9.09998283 L7.1150153,9.09998283 C10.1504483,9.09998283 12.5272289,7.90862136 13.2219051,4.46238371 C13.2426699,4.36037994 13.2601312,4.26096046 13.2758621,4.16382126 C13.0999907,4.07382687 12.9096469,3.99675398 12.7046734,3.9310824 C12.6541772,3.91481652 12.6019506,3.89915872 12.5490948,3.88380495" id="Fill-5" fill="#222D65"></path>
                </g>
            </g>
        </g>
    </g>
</svg>