<?xml version="1.0" encoding="UTF-8"?>
<svg width="85px" height="55px" viewBox="0 0 85 55" version="1.1" xmlns="http://www.w3.org/2000/svg" xmlns:xlink="http://www.w3.org/1999/xlink">
    <!-- Generator: Sketch 60.1 (88133) - https://sketch.com -->
    <title>payment_amazon</title>
    <desc>Created with Sketch.</desc>
    <g id="Symbols" stroke="none" stroke-width="1" fill="none" fill-rule="evenodd">
        <g id="Online-/-Amazon-Pay">
            <g id="payment_amazon">
                <rect id="Card" stroke="#CCCCCC" fill="#FFFFFF" x="0.5" y="0.5" width="84" height="54" rx="3"></rect>
                <g id="amazon" transform="translate(8.000000, 23.000000)" fill-rule="nonzero">
                    <path d="M68.9323479,0.282434782 L69.7394782,0.282434782 C69.8746085,0.282434782 69.9415654,0.340869565 69.9415654,0.455304348 C69.9270577,0.57569855 69.8929247,0.692902854 69.8405218,0.802260867 L66.668,8.876 C66.4074782,9.53907248 66.1067825,10.0150725 65.7659133,10.304 C65.4250436,10.5929275 64.9786667,10.7369855 64.4267825,10.7361739 C64.1495573,10.7398685 63.8731156,10.7058764 63.6050436,10.6351304 C63.5149401,10.6158871 63.4336649,10.5675496 63.3737393,10.4975652 C63.3190516,10.4095099 63.2938889,10.3063011 63.3019133,10.2029565 L63.3019133,9.828 C63.3019133,9.64539133 63.3737393,9.55408697 63.5186085,9.55408697 C63.5914907,9.55740861 63.6639715,9.56677409 63.7353043,9.58208697 C63.8635195,9.60423819 63.993566,9.61402223 64.1236521,9.61130436 C64.4297029,9.63061125 64.7324006,9.53850464 64.9758261,9.352 C65.1779133,9.17913043 65.3605218,8.86179709 65.5236521,8.4 L65.7975654,7.66956521 L63.0194782,0.802260867 C62.9672461,0.692924423 62.9335131,0.575680901 62.9196521,0.455304348 C62.9196521,0.340869565 62.9866085,0.282434782 63.1205218,0.282434782 L63.9860867,0.282434782 C64.0969546,0.271802121 64.208312,0.296974845 64.3038261,0.35426087 C64.3852515,0.445189242 64.4440636,0.55405413 64.4754782,0.672 L66.4951303,6.26591303 L68.4429564,0.672 C68.474371,0.55405413 68.5331831,0.445189242 68.6146085,0.35426087 C68.7101231,0.296974845 68.8214805,0.271802121 68.9323479,0.282434782 Z M52.0203479,0.0693913043 C52.4521755,0.0613535823 52.8805438,0.147775136 53.2754782,0.322608696 C53.6476397,0.493237411 53.9736246,0.750352372 54.2262607,1.07252174 C54.5013453,1.42943335 54.7047387,1.83622037 54.8252175,2.27043478 C54.9712179,2.78506156 55.0417499,3.31815486 55.0346085,3.85304348 C55.0412492,4.39931467 54.9657388,4.94348097 54.8106085,5.46730436 C54.6807469,5.911801 54.4680267,6.3277417 54.1836521,6.69321739 C53.9195673,7.02550198 53.5842491,7.29425592 53.2024346,7.47965218 C52.8012287,7.66588751 52.3627491,7.75791413 51.9205218,7.74869564 C51.0940239,7.7623693 50.2940125,7.45718787 49.6866085,6.89652175 L49.6866085,10.276 C49.6982178,10.3555173 49.6715786,10.4358451 49.6147554,10.4926684 C49.5579322,10.5494917 49.4776044,10.5761306 49.3980867,10.5645218 L48.5459133,10.5645218 C48.4663956,10.5761306 48.3860678,10.5494917 48.3292446,10.4926684 C48.2724214,10.4358451 48.2457822,10.3555173 48.2573915,10.276 L48.2573915,0.572173915 C48.2463147,0.492770507 48.2731279,0.41276954 48.3298181,0.356079175 C48.3865088,0.29938881 48.4665095,0.272575431 48.5459133,0.283652174 L49.1801739,0.283652174 C49.2629382,0.275910204 49.3452671,0.302357685 49.4080384,0.35685153 C49.4708102,0.411345376 49.5085607,0.489142981 49.5125218,0.572173915 L49.5843479,1.03356522 C49.9298464,0.728899033 50.3246315,0.485194374 50.7518261,0.312869565 C51.1554022,0.152007065 51.5858938,0.0693791546 52.0203479,0.0693913043 Z M3.30643478,0.0182608696 C3.976,0.0182608696 4.85008697,0.196 5.376,0.702434782 C6.04434782,1.32817391 5.98469564,2.16330435 5.98469564,3.07026087 L5.98469564,5.21165218 C5.98469564,5.85686957 6.25252175,6.13930436 6.50452175,6.48626085 C6.59217393,6.608 6.61165218,6.76017393 6.50452175,6.85147825 C6.27017393,7.04727536 5.8844976,7.38087438 5.60393398,7.62824155 L5.45026085,7.76452175 L5.43930436,7.76208697 C5.34877705,7.84060335 5.21867444,7.85375981 5.11426085,7.79495654 C4.65773913,7.41513043 4.57495652,7.23982607 4.3266087,6.87826085 C3.5706087,7.64765218 3.03617391,7.87773915 2.0586087,7.87773915 C0.900869564,7.87773915 2.04281037e-14,7.16313043 2.04281037e-14,5.73391303 C2.04281037e-14,4.61756522 0.608695654,3.85913044 1.46086956,3.4866087 C2.20713044,3.15913044 3.24921739,3.09947826 4.0466087,3.0093913 L4.0466087,2.83165218 C4.0466087,2.50417391 4.07217391,2.11704348 3.87982609,1.8333913 C3.71182609,1.58017391 3.39286956,1.47669565 3.108,1.47669565 C2.58330435,1.47669565 2.11582609,1.74573913 2.0013913,2.30208696 C1.98688833,2.43186689 1.8870247,2.53572507 1.75791304,2.55530435 L0.435826087,2.41043478 C0.369854269,2.40098688 0.31063889,2.36490953 0.271989423,2.31061622 C0.233339956,2.25632293 0.218635176,2.18856006 0.231304348,2.12313044 C0.536869564,0.506434782 1.99773913,0.0182608696 3.30643478,0.0182608696 Z M21.3311304,0.0133913044 C21.9994782,0.0133913044 22.8735652,0.191130435 23.4006956,0.697565218 C24.073913,1.32330435 24.0093913,2.15721739 24.0093913,3.0653913 L24.0093913,3.0653913 L24.0093913,5.208 C24.0093913,5.852 24.2772174,6.13443479 24.5292174,6.48139133 C24.6217391,6.608 24.6412174,6.75652175 24.5231304,6.84052175 C24.241913,7.07547825 23.7427826,7.51008697 23.4688696,7.75356521 L23.4688696,7.75356521 L23.4101007,7.79219722 C23.3269375,7.8332047 23.2272806,7.83193939 23.1438261,7.78521739 C22.6873044,7.40539133 22.6057391,7.23373915 22.3549565,6.86852175 C21.6001739,7.63791303 21.062087,7.868 20.0881739,7.868 C18.9304348,7.868 18.0295652,7.15339133 18.0295652,5.72539133 C18.0295652,4.60782609 18.6346087,3.8493913 19.4965218,3.47686956 C20.2415652,3.1493913 21.2848696,3.08973913 22.0822609,3.00086956 L22.0822609,3.00086956 L22.0822609,2.82678261 C22.0822609,2.49930435 22.1078261,2.11217391 21.9142609,1.82973913 C21.7511304,1.57652174 21.426087,1.47182609 21.1424348,1.47182609 C20.6177391,1.47182609 20.1526956,1.74086956 20.0370435,2.29721739 C20.0221389,2.42680859 19.9224725,2.53046164 19.7935652,2.55043478 L19.7935652,2.55043478 L18.4605218,2.40678261 C18.3940706,2.39766423 18.3343244,2.36153664 18.2953821,2.30692529 C18.2564398,2.25231395 18.2417513,2.18405663 18.2547826,2.11826087 C18.5615652,0.500347825 20.0224348,0.0133913044 21.3311304,0.0133913044 Z M34.6201739,0.00973913043 C36.6617391,0.00973913043 37.765913,1.76278261 37.765913,3.9906087 C37.765913,6.14417393 36.5485218,7.85217393 34.6201739,7.85217393 C32.6175652,7.85217393 31.5267826,6.09913043 31.5267826,3.91634782 C31.5267826,1.73356522 32.6309565,0.00973913043 34.6201739,0.00973913043 Z M59.3076521,0.0791304346 C60.2206957,0.0791304346 60.8935073,0.266202899 61.3260867,0.640347825 C61.7586667,1.01449275 61.9753624,1.596 61.9761739,2.38486956 L61.9761739,7.31043479 C61.9872507,7.38983817 61.9604375,7.46983916 61.9037468,7.5265295 C61.8470566,7.58321989 61.7670555,7.61003325 61.6876521,7.59895654 L61.0667825,7.59895654 C60.9880194,7.60672033 60.9095247,7.58178811 60.8496779,7.52999744 C60.7898307,7.47820677 60.7538867,7.40410543 60.7502607,7.32504346 L60.6772175,6.84904346 C60.3376438,7.14325248 59.9501868,7.37712649 59.5316521,7.54052175 C59.1347759,7.69961033 58.7113968,7.78222083 58.2838261,7.784 C57.5923479,7.784 57.0445218,7.58921739 56.6403479,7.19965218 C56.2361739,6.81008697 56.0332752,6.28863769 56.0316521,5.63530436 C56.0316521,4.93408697 56.2816231,4.37408696 56.7815654,3.95530435 C57.2815073,3.53652174 57.9543188,3.32753623 58.8,3.32834782 C59.4129191,3.33777282 60.0225845,3.41949741 60.6163479,3.57182609 L60.6163479,2.62469565 C60.6163479,2.10527536 60.5011013,1.74005797 60.2706085,1.52904348 C60.0401158,1.31802899 59.6363479,1.21211594 59.0593043,1.21130435 C58.3418537,1.21808236 57.6291716,1.32879819 56.9434782,1.54 L56.8351303,1.57652174 C56.7960153,1.59040785 56.7548935,1.59780971 56.7133915,1.59843478 C56.5916521,1.59843478 56.5259133,1.512 56.5259133,1.33791304 L56.5259133,0.952 C56.5166742,0.854517776 56.5370386,0.756514547 56.5843479,0.670782607 C56.6465909,0.601011418 56.7258683,0.548579253 56.8144346,0.518608697 C57.1805603,0.369821058 57.562442,0.263220929 57.9526957,0.200869565 C58.3998067,0.119913159 58.8532709,0.0791304346 59.3076521,0.0791304346 Z M16.4944348,0.786434782 C16.9314782,1.38052174 16.8413913,2.24730435 16.8413913,2.99965218 L16.8413913,7.45408697 C16.8401148,7.52307817 16.8113925,7.58871531 16.7615827,7.63646884 C16.7117728,7.68422233 16.6449837,7.71015336 16.576,7.70866076 L15.2015652,7.70866076 C15.0663547,7.70147448 14.9598285,7.59068721 14.958087,7.45530436 L14.958087,3.71304348 C14.958087,3.416 14.9836522,2.6733913 14.9191304,2.39095652 C14.8168696,1.91617391 14.5088696,1.78226087 14.1107826,1.78226087 C13.7458993,1.79340816 13.4227262,2.0208263 13.2890435,2.36052174 C13.168,2.66730435 13.1596522,3.14670807 13.1597374,3.53040994 L13.16,7.45408697 C13.1587206,7.52286271 13.1301662,7.58831183 13.0806214,7.63603022 C13.0310765,7.68374857 12.9646013,7.70982543 12.8958261,7.70866076 L11.5177391,7.70866076 C11.3827958,7.70089138 11.2765955,7.59044314 11.2742609,7.45530436 L11.2742609,3.71304348 C11.2742609,2.9253913 11.396,1.76521739 10.422087,1.76521739 C9.53671148,1.76521739 9.47634497,2.69787999 9.47268639,3.48301049 L9.47252175,7.45408697 C9.47124519,7.52307817 9.44252302,7.58871531 9.39271312,7.63646884 C9.34290327,7.68422233 9.27611417,7.71015336 9.20713043,7.70866076 L7.83147825,7.70866076 C7.70397801,7.70190601 7.60047521,7.60306083 7.588,7.476 L7.588,0.415130435 C7.59262387,0.273636782 7.70939423,0.161731827 7.85095654,0.163130435 L9.13286957,0.163130435 C9.26422028,0.170376947 9.36910133,0.275257974 9.37634782,0.406608696 L9.37634782,1.32817391 L9.40191303,1.32817391 C9.73547825,0.435826087 10.3648696,0.0206956522 11.2121739,0.0206956522 C12.0594782,0.0206956522 12.6109565,0.435826087 12.9968696,1.32817391 C13.2545044,0.64144724 13.8624492,0.147028491 14.58727,0.034760737 C15.3120908,-0.077507017 16.0411216,0.209827108 16.4944348,0.786434782 Z M42.4966956,-3.55271368e-15 C43.1126956,-3.55271368e-15 43.714087,0.222782609 44.1024348,0.831478261 C44.428917,1.34499605 44.4585972,2.17745023 44.4612954,2.83767694 L44.4615652,7.47234782 C44.4414623,7.60196239 44.3285263,7.69668289 44.1973913,7.69402898 L42.8144348,7.69402898 C42.6903955,7.68860311 42.5879066,7.59533824 42.5709565,7.47234782 L42.5709565,3.63878261 C42.5709565,2.86695652 42.6610435,1.73721739 41.7102609,1.73721739 C41.3572183,1.75354186 41.0461231,1.97425769 40.914087,2.30208696 C40.7217391,2.73304348 40.6961739,3.164 40.6961739,3.64121739 L40.6961739,7.44069564 C40.6908886,7.58401467 40.5717378,7.69666632 40.4283478,7.69402898 L39.0563478,7.69402898 C38.9211373,7.68686581 38.8146111,7.57607853 38.8128696,7.44069564 L38.8128696,0.379826087 C38.8273896,0.245763872 38.942238,0.145205384 39.0770435,0.148521739 L40.3528696,0.148521739 C40.4690617,0.152250122 40.5685727,0.232853993 40.5963478,0.34573913 L40.5963478,1.42556522 L40.6231304,1.42556522 C41.0078261,0.460173913 41.5471304,-3.55271368e-15 42.4966956,-3.55271368e-15 Z M30.470087,0.136347826 C30.5388102,0.134018917 30.6055004,0.159874211 30.6546942,0.207918661 C30.7038881,0.255963109 30.7313125,0.322023556 30.7306087,0.390782609 L30.7306087,1.25634782 C30.7306087,1.40121739 30.6088696,1.59113044 30.3909565,1.8906087 L28.0486956,5.23356521 C28.917913,5.21286957 29.8370435,5.34313043 30.6271304,5.78747825 C30.7730458,5.86528325 30.8659955,6.01539703 30.8706087,6.18069564 L30.8706087,7.26173915 C30.8706087,7.41026085 30.7086956,7.58191303 30.5370435,7.49304346 C29.0376419,6.72237123 27.2578592,6.72554699 25.7612174,7.50156521 C25.6041739,7.58556521 25.4398261,7.41634782 25.4398261,7.26782607 L25.4398261,6.23913043 C25.425463,5.99664198 25.4839714,5.75540117 25.6078261,5.54643479 L28.3213913,1.65078261 L25.9547826,1.65078261 C25.8858523,1.65345232 25.818841,1.62774835 25.7693781,1.57966579 C25.7199152,1.53158323 25.6923253,1.46532606 25.6930435,1.39634782 L25.6930435,0.390782609 C25.6898337,0.321938954 25.71595,0.254959935 25.7649142,0.206459848 C25.8138784,0.15795976 25.8811031,0.132482525 25.949913,0.136347826 L30.470087,0.136347826 Z M59.0921739,4.31078261 C58.0046376,4.31078261 57.4612752,4.7291594 57.4620854,5.56591303 C57.4620854,5.93113043 57.5631303,6.21234782 57.7652175,6.40956521 C57.9673043,6.60678261 58.2558261,6.70498551 58.6307825,6.70418381 C58.9705751,6.69986562 59.3070655,6.63685087 59.6253915,6.51791303 C59.9826593,6.38651141 60.3179901,6.20181254 60.62,5.97008697 L60.62,4.49826087 C60.3701705,4.43951392 60.1174126,4.39400127 59.8627825,4.36191304 C59.6072717,4.32839664 59.3498729,4.31131804 59.0921739,4.31078261 Z M51.6173915,1.21982609 L51.6173915,1.22104348 C50.9184345,1.22656365 50.2402693,1.45945589 49.6853915,1.88452174 L49.6853915,5.90191303 C50.3005799,6.36452175 50.9348406,6.5954203 51.5881739,6.59461294 C52.9143188,6.59461294 53.5773915,5.70185509 53.5773915,3.91634782 C53.5773915,2.13084058 52.9240581,1.232 51.6173915,1.21982609 Z M4.05269565,4.11356522 C3.05808696,4.11356522 2.00747826,4.3266087 2.00747826,5.49773915 C2.00747826,6.09426085 2.31547826,6.496 2.8426087,6.496 C3.22973913,6.496 3.57669565,6.25739133 3.79582609,5.87026085 C4.03123913,5.45163041 4.05134511,5.05723368 4.05269328,4.6063305 L4.05269565,4.11356522 Z M22.0846956,4.10747826 C21.090087,4.10747826 20.0394782,4.31930435 20.0394782,5.49165218 C20.0394782,6.08695654 20.3474782,6.48869564 20.8746087,6.48869564 C21.2605218,6.48869564 21.6086956,6.25008697 21.8266087,5.86417393 C22.0944348,5.38695654 22.0846956,4.94139133 22.0846956,4.40452174 Z M34.6335652,1.45113044 C33.6194782,1.45113044 33.5549446,2.83165218 33.5549446,3.69356522 C33.5549446,4.55547826 33.5427826,6.39617393 34.6201739,6.39617393 C35.6975652,6.39617393 35.7377391,4.91095654 35.7377391,4.00521739 C35.7377391,3.41113044 35.7121739,2.69773913 35.532,2.13408696 C35.3773913,1.64713044 35.0693913,1.45113044 34.6335652,1.45113044 Z" id="Combined-Shape" fill="#232F3E"></path>
                    <path d="M27.558087,10.4768696 C24.976,12.382087 21.2276522,13.3986087 18.0088696,13.3986087 C13.7026856,13.4205556 9.54349629,11.833725 6.34626085,8.94904346 C6.10278261,8.73113043 6.31947825,8.43286957 6.61043479,8.60208697 C9.93147825,10.534087 14.0365218,11.697913 18.2803478,11.697913 C21.3392163,11.6812104 24.3646796,11.060645 27.1831304,9.87182607 C27.6189565,9.68678261 27.9853913,10.1591304 27.558087,10.4805218 M28.6318261,9.25460867 C28.9629565,9.67704346 28.2666087,11.4203478 27.9537391,12.1982609 C27.8587826,12.4332174 28.062087,12.5281739 28.2751304,12.3504348 C29.6593044,11.1914782 30.0172174,8.764 29.736,8.41339133 C29.4547826,8.06278261 27.0333913,7.76573915 25.5554782,8.80417393 C25.3278261,8.96365218 25.3667826,9.184 25.62,9.15356521 C26.4514782,9.05373915 28.3043478,8.83095654 28.6342609,9.25460867" id="Shape" fill="#FF9900"></path>
                </g>
            </g>
        </g>
    </g>
</svg>