<?xml version="1.0" encoding="UTF-8"?>
<svg width="85px" height="55px" viewBox="0 0 85 55" version="1.1" xmlns="http://www.w3.org/2000/svg" xmlns:xlink="http://www.w3.org/1999/xlink">
    <!-- Generator: Sketch 60.1 (88133) - https://sketch.com -->
    <title>payment_dinersclub</title>
    <desc>Created with Sketch.</desc>
    <g id="Symbols" stroke="none" stroke-width="1" fill="none" fill-rule="evenodd">
        <g id="USA-/-Diner's-Club">
            <g id="payment_dinersclub">
                <rect id="Card" stroke="#CCCCCC" fill="#FFFFFF" x="0.5" y="0.5" width="84" height="54" rx="3"></rect>
                <g id="dinersclub" transform="translate(16.000000, 9.000000)">
                    <path d="M37.715625,32.815815 C39.045,32.8172225 40.1121094,33.6440743 40.1144531,34.9806422 C40.1130469,36.4208891 39.0789844,37.3781607 37.7479687,37.3805064 C36.4235156,37.3781607 35.4067969,36.4767163 35.4042187,35.1293583 C35.4067969,33.826099 36.4148437,32.8179262 37.715625,32.815815 Z M2.14992187,32.9087039 C2.38664062,32.9087039 2.62898437,32.9328644 2.86125,32.9328644 C3.0459375,32.9328644 3.22476562,32.9087039 3.43359375,32.9183212 L6.1546875,35.9838891 L6.1546875,33.7045928 C6.15164062,33.2124694 5.82304687,33.1526546 5.6428125,33.1486669 L5.47898437,33.1486669 L5.47898437,32.9087039 L5.50640625,32.9087039 C5.79890625,32.9087039 6.08390625,32.9328644 6.373125,32.9328644 C6.62507812,32.9328644 6.87890625,32.9087039 7.13484375,32.9087039 L7.16203125,32.9087039 L7.16203125,33.1486669 L7.04273437,33.1486669 C6.78703125,33.1552348 6.52476562,33.1777533 6.51726562,33.9086669 L6.51726562,36.7281731 C6.51726562,36.9451484 6.5240625,37.16142 6.55382812,37.3495434 L6.55945312,37.3805064 L6.52734375,37.3805064 L6.27234375,37.3718274 L3.13007812,33.8666792 L3.13007812,36.3505187 C3.13757812,36.8893212 3.219375,37.0424941 3.68554687,37.0483583 L3.81820312,37.0483583 L3.81820312,37.2878521 L3.79078125,37.2878521 C3.52289062,37.2878521 3.25640625,37.2629879 2.99226562,37.2629879 C2.715,37.2629879 2.43046875,37.2878521 2.14992187,37.2878521 L2.12273437,37.2878521 L2.12273437,37.0483583 L2.23710937,37.0483583 C2.64632812,37.0460126 2.76328125,36.7828274 2.76773437,36.2892965 L2.76773437,33.6794941 C2.7665625,33.349457 2.49609375,33.1486669 2.23125,33.1486669 L2.12273437,33.1486669 L2.12273437,32.9087039 L2.14992187,32.9087039 Z M20.0292187,32.9087039 C20.2657031,32.9087039 20.5080469,32.9328644 20.7417187,32.9328644 C20.9235937,32.9328644 21.1028906,32.9087039 21.3105469,32.9166792 L24.0325781,35.9838891 L24.0325781,33.7045928 C24.0309375,33.2124694 23.7011719,33.1514817 23.5211719,33.1486669 L23.3578125,33.1486669 L23.3578125,32.9087039 L23.3847656,32.9087039 C23.6772656,32.9087039 23.9627344,32.9328644 24.2521875,32.9328644 C24.504375,32.9328644 24.7579687,32.9087039 25.0132031,32.9087039 L25.040625,32.9087039 L25.040625,33.1486669 L24.9210937,33.1486669 C24.665625,33.1547657 24.4024219,33.1777533 24.3963281,33.9086669 L24.3963281,36.7281731 C24.3963281,36.9451484 24.4017187,37.1600126 24.4333594,37.3500126 L24.4364062,37.3805064 L24.4064062,37.3805064 L24.1521094,37.3718274 L21.009375,33.8671484 L21.009375,36.3502842 C21.0166406,36.8900249 21.0982031,37.0424941 21.5650781,37.0483583 L21.6963281,37.0483583 L21.6963281,37.2878521 L21.669375,37.2878521 C21.4017187,37.2878521 21.1359375,37.2620496 20.870625,37.2620496 C20.5942969,37.2620496 20.308125,37.2878521 20.0292187,37.2878521 L20.0015625,37.2878521 L20.0015625,37.0483583 L20.1154687,37.0483583 C20.5244531,37.0467163 20.6416406,36.7828274 20.645625,36.2878891 L20.645625,33.6785558 C20.6449219,33.3482842 20.3749219,33.1486669 20.1100781,33.1486669 L20.0015625,33.1486669 L20.0015625,32.9087039 L20.0292187,32.9087039 Z M40.2410156,32.9087039 C40.4784375,32.9087039 40.7198438,32.9328644 40.95375,32.9328644 C41.1375,32.9328644 41.3153906,32.9087039 41.5253906,32.9183212 L44.2460156,35.9838891 L44.2460156,33.7045928 C44.2439063,33.2124694 43.9141406,33.1526546 43.7334375,33.1486669 L43.5703125,33.1486669 L43.5703125,32.9087039 L43.5986719,32.9087039 C43.8895313,32.9087039 44.1752344,32.9328644 44.46375,32.9328644 C44.7171094,32.9328644 44.9697656,32.9087039 45.2271094,32.9087039 L45.253125,32.9087039 L45.253125,33.1486669 L45.1335938,33.1486669 C44.8783594,33.1552348 44.6149219,33.1786916 44.6097656,33.9086669 L44.6097656,36.7281731 C44.6097656,36.9451484 44.6146875,37.16142 44.6446875,37.3500126 L44.6500781,37.3805064 L44.6203125,37.3805064 L44.3641406,37.3718274 L41.221875,33.8671484 L41.221875,36.3505187 C41.2291406,36.8900249 41.3109375,37.0417904 41.7759375,37.0471854 L41.9092969,37.0471854 L41.9092969,37.2878521 L41.8830469,37.2878521 C41.6149219,37.2878521 41.3491406,37.2629879 41.0842969,37.2629879 C40.8067969,37.2629879 40.5217969,37.2878521 40.2410156,37.2878521 L40.2157031,37.2878521 L40.2157031,37.0471854 L40.3284375,37.0471854 C40.7364844,37.0460126 40.8541406,36.7828274 40.8590625,36.2892965 L40.8590625,33.6785558 C40.8588281,33.3482842 40.588125,33.1486669 40.3221094,33.1486669 L40.2157031,33.1486669 L40.2157031,32.9087039 L40.2410156,32.9087039 Z M47.6095313,32.7543583 C47.6254688,32.7529508 47.6580469,32.7569385 47.6770313,32.7907163 C47.6957813,32.8395064 47.7140625,32.8958027 47.7342188,32.9457657 L48.8728125,36.1867904 C48.9473438,36.4037657 49.0211719,36.6327039 49.1015625,36.8175434 C49.1744531,36.9815064 49.2864844,37.0467163 49.4845313,37.0483583 L49.5485156,37.0483583 L49.5485156,37.2892595 L49.520625,37.2878521 C49.2414844,37.2768274 48.9635156,37.2629879 48.6682031,37.2629879 C48.3660938,37.2629879 48.0557813,37.2768274 47.7403125,37.2878521 L47.7128906,37.2892595 L47.7128906,37.0483583 L47.8071094,37.0483583 C47.9510156,37.0483583 48.1642969,37.0150496 48.1645313,36.8956546 C48.1661719,36.8250496 48.1101563,36.6559262 48.0405469,36.4581854 L47.8057031,35.757062 L46.4388281,35.757062 L46.2475781,36.3833583 C46.1852344,36.5956422 46.1121094,36.7577286 46.1128125,36.8581237 C46.1128125,37.0098891 46.3450781,37.0483583 46.5496875,37.0483583 L46.644375,37.0483583 L46.644375,37.2892595 L46.6164844,37.2878521 C46.3692188,37.2768274 46.115625,37.2629879 45.8690625,37.2629879 C45.6471094,37.2629879 45.4249219,37.2768274 45.2015625,37.2878521 L45.1746094,37.2892595 L45.1746094,37.0483583 L45.2367188,37.0483583 C45.4675781,37.0471854 45.6607031,36.9148891 45.7514063,36.6634323 L46.7416406,33.819062 C46.8210938,33.5896546 46.9328906,33.2814323 46.9872656,33.0346669 C47.1817969,32.9671113 47.4304688,32.8427904 47.5509375,32.7679632 C47.566875,32.7618644 47.5842188,32.7543583 47.6095313,32.7543583 Z M27.3960937,32.7538891 C27.4113281,32.7529508 27.4446094,32.7569385 27.4647656,32.7893089 C27.4823437,32.8402101 27.5020312,32.8958027 27.5207812,32.9457657 L28.6607812,36.1867904 C28.7336719,36.4037657 28.8077344,36.6327039 28.8888281,36.8163706 C28.9605469,36.9815064 29.0742187,37.0467163 29.2732031,37.0471854 L29.3357812,37.0471854 L29.3357812,37.2892595 L29.3083594,37.2878521 C29.0301562,37.2758891 28.7510156,37.2620496 28.4561719,37.2620496 C28.1526562,37.2620496 27.84375,37.2758891 27.5278125,37.2878521 L27.4992187,37.2892595 L27.4992187,37.0471854 L27.5946094,37.0471854 C27.7380469,37.0471854 27.9508594,37.0150496 27.9513281,36.8956546 C27.9527344,36.8250496 27.8971875,36.6552225 27.8289844,36.4581854 L27.5932031,35.757062 L26.2275,35.757062 L26.0348437,36.3833583 C25.9725,36.5940002 25.8972656,36.7577286 25.8984375,36.8585928 C25.9005469,37.0098891 26.1316406,37.0471854 26.3371875,37.0471854 L26.4323437,37.0471854 L26.4323437,37.2892595 L26.4042187,37.2878521 C26.1567187,37.2758891 25.9040625,37.2620496 25.6563281,37.2620496 C25.4353125,37.2620496 25.2114844,37.2758891 24.9897656,37.2878521 L24.9609375,37.2892595 L24.9609375,37.0471854 L25.0251562,37.0471854 C25.2553125,37.0467163 25.4475,36.9151237 25.5370312,36.6634323 L26.5286719,33.819062 C26.6085937,33.5896546 26.7210937,33.2814323 26.7745312,33.0337286 C26.9688281,32.967815 27.2179687,32.8427904 27.3367969,32.7679632 C27.3541406,32.7618644 27.37125,32.7538891 27.3960937,32.7538891 Z M49.7376563,32.9087039 C50.0674219,32.9087039 50.3896875,32.9328644 50.7161719,32.9328644 C51.0314063,32.9328644 51.3398438,32.9087039 51.6585938,32.9087039 L51.6834375,32.9087039 L51.6834375,33.1486669 L51.5029688,33.1486669 C51.2627344,33.1547657 51.1136719,33.1439755 51.1082813,33.4566546 L51.1082813,36.6535805 C51.1099219,36.8853336 51.2615625,36.9472595 51.4551563,36.9749385 C51.5641406,36.9824447 51.6794531,36.9864323 51.7985156,36.9864323 C51.9499219,36.9864323 52.1071875,36.9793953 52.2672656,36.9625064 C52.5194531,36.9324817 52.7364844,36.7865805 52.8435938,36.6388027 C52.9392188,36.5062718 52.993125,36.3364447 53.030625,36.2015681 L53.0357813,36.1811607 L53.2692188,36.1811607 L53.2638281,36.2137657 C53.19375,36.5679632 53.1084375,36.9137163 53.0334375,37.2669755 L53.0285156,37.2878521 L53.0078906,37.2878521 C52.4617969,37.2878521 51.9164063,37.2629879 51.3733594,37.2629879 C50.8286719,37.2629879 50.28375,37.2878521 49.7376563,37.2878521 L49.7116406,37.2878521 L49.7116406,37.0483583 L49.8246094,37.0483583 C50.0484375,37.0429632 50.2610156,37.0272471 50.2635937,36.6603829 L50.2635937,33.4744817 C50.2610156,33.1728274 50.049375,33.1526546 49.8246094,33.1486669 L49.7116406,33.1486669 L49.7116406,32.9087039 L49.7376563,32.9087039 Z M0.026953125,32.9087039 C0.27,32.9087039 0.64125,32.9328644 0.9440625,32.9328644 C1.25203125,32.9328644 1.6228125,32.9087039 1.91554688,32.9087039 L1.94320313,32.9087039 L1.94320313,33.1486669 L1.82929688,33.1486669 C1.60429688,33.1526546 1.39875,33.1723583 1.39757813,33.4756546 L1.39757813,36.7220743 C1.39875,37.0249015 1.60429688,37.0429632 1.82929688,37.0483583 L1.94320313,37.0483583 L1.94320313,37.2878521 L1.91554688,37.2878521 C1.61601563,37.2878521 1.24546875,37.2629879 0.937265625,37.2629879 C0.63421875,37.2629879 0.27,37.2878521 0.026953125,37.2878521 L6.99440506e-15,37.2878521 L6.99440506e-15,37.0483583 L0.1134375,37.0483583 C0.338203125,37.0429632 0.542578125,37.0249015 0.544453125,36.7220743 L0.544453125,33.4756546 C0.542578125,33.1723583 0.338203125,33.1526546 0.1134375,33.1486669 L6.99440506e-15,33.1486669 L6.99440506e-15,32.9087039 L0.026953125,32.9087039 Z M11.4377344,32.712136 L11.4658594,32.7177657 L11.6409375,32.7454447 L11.6364844,32.7728891 C11.611875,32.9391978 11.5877344,33.1059755 11.5689844,33.2720496 C11.5575,33.4381237 11.5575,33.6046669 11.5575,33.7721484 L11.5575,33.7909138 L11.5394531,33.7981854 L11.3203125,33.8784076 L11.3189062,33.8425187 C11.3017969,33.6093583 11.2778906,33.2720496 10.8864844,33.2720496 L9.898125,33.2720496 L9.898125,36.5423953 C9.90421875,37.0096546 10.089375,37.0424941 10.3846875,37.0483583 L10.5295312,37.0483583 L10.5295312,37.2878521 L10.5032812,37.2878521 C10.2592969,37.2878521 9.82617187,37.2632225 9.49382812,37.2632225 C9.12234375,37.2632225 8.68921875,37.2878521 8.44640625,37.2878521 L8.41992187,37.2878521 L8.41992187,37.0483583 L8.56453125,37.0483583 C8.90578125,37.0403829 9.04289062,37.0359262 9.050625,36.5552965 L9.050625,33.2720496 L8.06273437,33.2720496 C7.6040625,33.2811978 7.61414062,33.3579015 7.513125,33.815778 L7.50867187,33.8368891 L7.27007812,33.8368891 L7.27335937,33.8047533 C7.29867187,33.6318768 7.33007812,33.4578274 7.348125,33.2779138 C7.37390625,33.1059755 7.385625,32.9340373 7.385625,32.7564694 L7.385625,32.7290249 L7.58226562,32.7290249 L7.58695312,32.7484941 C7.62867187,32.9047163 7.74328125,32.9058891 7.90125,32.9087039 L11.1269531,32.9087039 C11.2994531,32.9058891 11.4250781,32.9035434 11.435625,32.741457 L11.4377344,32.712136 Z M15.615,32.9087039 C15.8153906,32.9087039 16.1976563,32.9328644 16.5752344,32.9328644 C16.9448438,32.9328644 17.2417969,32.9087039 17.5717969,32.9087039 C18.3525,32.9103459 19.0708594,33.1254447 19.0727344,34.0257163 C19.0727344,34.5849262 18.7033594,34.9344323 18.2259375,35.1293583 L19.265625,36.6882965 C19.4388281,36.9453829 19.5466406,37.0096546 19.8478125,37.0483583 L19.8703125,37.0518768 L19.8703125,37.2878521 L19.8442969,37.2878521 C19.6366406,37.2878521 19.4397656,37.2629879 19.2360938,37.2629879 C19.0474219,37.2629879 18.849375,37.2878521 18.63375,37.2775311 C18.1586719,36.6535805 17.7515625,35.9883459 17.3517188,35.2808891 L16.9858594,35.2808891 L16.9858594,36.5787533 C16.9926563,37.0453089 17.1794531,37.0417904 17.465625,37.0483583 L17.6046094,37.0483583 L17.6046094,37.2878521 L17.5771875,37.2878521 C17.2232813,37.2878521 16.8635156,37.2629879 16.5126563,37.2629879 C16.216875,37.2629879 15.9260156,37.2878521 15.615,37.2878521 L15.5880469,37.2878521 L15.5880469,37.0483583 L15.7267969,37.0483583 C15.9494531,37.0467163 16.1376563,36.9496052 16.1385938,36.7413089 L16.1385938,33.5920002 C16.1339063,33.1526546 15.9189844,33.1547657 15.7267969,33.1486669 L15.5880469,33.1486669 L15.5880469,32.9087039 L15.615,32.9087039 Z M32.9554687,32.712136 L32.9842969,32.7177657 L33.1600781,32.7454447 L33.1558594,32.7728891 C33.1303125,32.9391978 33.106875,33.1059755 33.088125,33.2720496 C33.0754687,33.4381237 33.0754687,33.6049015 33.0754687,33.7721484 L33.0754687,33.7909138 L33.0574219,33.7981854 L32.8382812,33.8784076 L32.8373437,33.8425187 C32.8211719,33.6093583 32.7965625,33.2720496 32.4051562,33.2720496 L31.4165625,33.2720496 L31.4165625,36.5423953 C31.4228906,37.0096546 31.6082812,37.0424941 31.9033594,37.0483583 L32.0477344,37.0483583 L32.0477344,37.2878521 L32.0219531,37.2878521 C31.7786719,37.2878521 31.3446094,37.2632225 31.0117969,37.2632225 C30.6419531,37.2632225 30.2083594,37.2878521 29.9657812,37.2878521 L29.9383594,37.2878521 L29.9383594,37.0483583 L30.0834375,37.0483583 C30.4249219,37.0403829 30.5617969,37.0359262 30.57,36.5552965 L30.5695312,33.2720496 L29.5823437,33.2720496 C29.1232031,33.2800249 29.1332812,33.3579015 29.0322656,33.815778 L29.0278125,33.8368891 L28.78875,33.8368891 L28.7925,33.8061607 C28.8185156,33.6318768 28.8489844,33.4578274 28.8670312,33.2793212 C28.8923437,33.1059755 28.9038281,32.9340373 28.9038281,32.7564694 L28.9038281,32.7290249 L29.1004687,32.7290249 L29.105625,32.7484941 C29.1489844,32.9047163 29.2617187,32.9058891 29.4201562,32.9087039 L32.6472656,32.9087039 C32.8185937,32.9058891 32.9435156,32.9035434 32.9545312,32.7419262 L32.9554687,32.712136 Z M33.3578906,32.9087039 C33.5997656,32.9087039 33.9721875,32.9328644 34.2733594,32.9328644 C34.5820313,32.9328644 34.9535156,32.9087039 35.2469531,32.9087039 L35.2727344,32.9087039 L35.2727344,33.1486669 L35.1602344,33.1486669 C34.9335938,33.1526546 34.7299219,33.1728274 34.7278125,33.4756546 L34.7278125,36.7220743 C34.7299219,37.0249015 34.9335938,37.0446052 35.1602344,37.0483583 L35.2727344,37.0483583 L35.2727344,37.2878521 L35.2469531,37.2878521 C34.9476563,37.2878521 34.5773438,37.2620496 34.2684375,37.2620496 C33.9653906,37.2620496 33.5997656,37.2878521 33.3578906,37.2878521 L33.3314063,37.2878521 L33.3314063,37.0483583 L33.4448438,37.0483583 C33.6679688,37.0446052 33.87375,37.0249015 33.8751563,36.7220743 L33.8751563,33.4756546 C33.87375,33.1728274 33.6679688,33.1526546 33.4448438,33.1486669 L33.3314063,33.1486669 L33.3314063,32.9087039 L33.3578906,32.9087039 Z M11.8078125,32.9087039 C12.1860937,32.9087039 12.8301562,32.9328644 13.3490625,32.9328644 C13.8696094,32.9328644 14.5125,32.9087039 14.9341406,32.9087039 L14.9615625,32.9087039 L14.960625,32.9373212 C14.9566406,33.0299755 14.9540625,33.1402225 14.9540625,33.2568027 C14.9540625,33.4709632 14.960625,33.7057657 14.9728125,33.8821607 L14.9739844,33.9042101 L14.953125,33.9105434 L14.7353906,33.9675434 L14.7344531,33.9356422 C14.6978906,33.5335928 14.6439844,33.2410866 14.0064844,33.2349879 L13.171875,33.2349879 L13.1714062,34.8044817 L13.8820312,34.8044817 C14.2389844,34.8007286 14.3027344,34.6182348 14.3449219,34.2839755 L14.3463281,34.2591113 L14.5844531,34.2591113 L14.5839844,34.2874941 C14.5720312,34.5295681 14.5647656,34.7704694 14.5647656,35.0118397 C14.5647656,35.2461731 14.5720312,35.4814447 14.5839844,35.7169508 L14.5844531,35.7394694 L14.5619531,35.7446299 L14.3463281,35.7875558 L14.3449219,35.7584694 C14.3020312,35.3801113 14.2992187,35.1727533 13.8883594,35.1682965 L13.171875,35.1682965 L13.171875,36.5853212 C13.1728125,36.9620373 13.4971875,36.9599262 13.9007812,36.9620373 C14.6463281,36.9575805 14.9449219,36.9209879 15.1314844,36.2259632 L15.1378125,36.2008644 L15.1638281,36.2050866 L15.3623437,36.2566916 L15.3567187,36.2822595 C15.2763281,36.6101854 15.2025,36.9378768 15.1464844,37.2658027 L15.1417969,37.2878521 L15.1204687,37.2878521 C14.7232031,37.2878521 14.0107031,37.2620496 13.4552344,37.2620496 C12.8974219,37.2620496 12.1614844,37.2878521 11.8078125,37.2878521 L11.7817969,37.2878521 L11.7817969,37.0483583 L11.895,37.0483583 C12.1190625,37.0446052 12.3229687,37.0249015 12.3257812,36.7220743 L12.3257812,33.4756546 C12.3229687,33.1728274 12.1190625,33.1526546 11.895,33.1486669 L11.7817969,33.1486669 L11.7817969,32.9087039 L11.8078125,32.9087039 Z M37.7039062,33.1425681 C36.6417187,33.143741 36.3278906,34.0867039 36.3250781,34.9121484 C36.3255469,36.0160249 36.8289844,37.052815 37.8096094,37.054457 C38.986875,37.0535187 39.1914844,36.0211854 39.1933594,35.1176299 C39.1933594,34.2199385 38.7103125,33.1442101 37.7039062,33.1425681 Z M26.9069531,33.6959138 L26.3617969,35.35642 L27.4457812,35.35642 L26.9069531,33.6959138 Z M47.1196875,33.6968521 L46.575,35.35642 L47.6582813,35.35642 L47.1196875,33.6968521 Z M17.3109375,33.1850249 C17.1438281,33.1850249 17.0648438,33.2005064 16.9858594,33.2082471 L16.9858594,35.0033953 L17.2619531,35.0033953 C17.8748438,34.9972965 18.18375,34.7845434 18.1898438,34.0646546 C18.1860938,33.5232718 17.8502344,33.1873706 17.3109375,33.1850249 Z M46.7634375,25.4196546 C46.8553125,25.4196546 46.8553125,25.4989385 46.8553125,25.6246669 L46.8553125,29.8262471 C46.8553125,30.0319632 46.9797656,30.0427533 47.1726563,30.0427533 C47.31,30.0427533 47.4799219,30.0319632 47.6289844,30.0319632 L47.6289844,30.2716916 C47.139375,30.3167286 46.2058594,30.5559879 45.9892969,30.6244817 L45.9325781,30.5897657 L45.9325781,29.6672101 C45.2505469,30.2250126 44.7264844,30.6244817 43.9174219,30.6244817 C43.303125,30.6244817 42.6663281,30.2250126 42.6663281,29.2696175 L42.6663281,26.3532348 C42.6663281,26.056741 42.6210938,25.7719755 41.9847656,25.7159138 L41.9847656,25.4989385 C42.3946875,25.4876792 43.303125,25.4196546 43.4514844,25.4196546 C43.5620215,25.4196546 43.5758386,25.4803563 43.5775658,25.6636739 L43.5778125,28.6878891 C43.5778125,29.0298891 43.5778125,30.0082718 44.5675781,30.0082718 C44.9538281,30.0082718 45.4659375,29.7129508 45.9435938,29.3148891 L45.9435938,26.2504941 C45.9435938,26.0229632 45.3977344,25.8977039 44.98875,25.7844076 L44.98875,25.5796299 C46.0117969,25.5101978 46.6497656,25.4196546 46.7634375,25.4196546 Z M19.0307813,25.2479508 C19.9535156,25.2479508 20.9442188,25.828741 20.9547656,27.0362965 C20.9547656,27.1054941 20.9547656,27.1730496 20.9442188,27.2415434 L20.8413281,27.3102718 L17.6439844,27.3102718 C17.6207813,27.412778 17.6207813,27.5833089 17.6439844,27.970815 C17.7110156,29.0524076 18.4066406,29.9402471 19.3160156,29.9402471 C19.9427344,29.9402471 20.4323438,29.5984817 20.8525781,29.1779015 L21.0114844,29.3374076 C20.4878906,30.0319632 19.8396094,30.6244817 18.9072656,30.6244817 C17.0974219,30.6244817 16.7334375,28.8696792 16.7334375,28.1413459 C16.7334375,25.9089632 18.2350781,25.2479508 19.0307813,25.2479508 Z M49.0284375,21.7514817 C49.0961719,21.7514817 49.1191406,21.8209138 49.1191406,21.9121607 L49.1191406,26.0680002 C49.5740625,25.6816669 50.1888281,25.2479508 50.8146094,25.2479508 C52.1348438,25.2479508 52.9314844,26.3994447 52.9314844,27.6405434 C52.9314844,29.1319262 51.8385938,30.6244817 50.210625,30.6244817 C49.3694531,30.6244817 48.9255469,30.3502718 48.6290625,30.2250126 L48.28875,30.4870249 L48.0501563,30.3622348 C48.151875,29.6904323 48.2092969,29.0298891 48.2092969,28.3348644 L48.2092969,23.4384941 C48.2092969,22.6974941 48.0379688,22.6749755 47.6055469,22.5494817 L47.6055469,22.3669879 C48.0611719,22.2192101 48.5385938,22.0146669 48.7774219,21.8769755 C48.9030469,21.8096546 48.99375,21.7514817 49.0284375,21.7514817 Z M36.3400781,22.3322718 C37.2614063,22.3322718 38.14875,22.6292348 39.0250781,22.9369879 L39.1382813,24.5646546 L38.8544531,24.5646546 C38.6378906,23.2334817 37.6933594,22.6974941 36.4197656,22.6974941 C35.1096094,22.6974941 33.21,23.5738397 33.21,26.3070249 C33.21,28.6083706 34.8492188,30.2599632 36.6011719,30.2599632 C37.7266406,30.2599632 38.6617969,29.4851854 38.8889063,28.2886546 L39.1507031,28.3566792 L38.8889063,30.0200002 C38.4110156,30.3164941 37.1247656,30.6244817 36.3728906,30.6244817 C33.7113281,30.6244817 32.0273438,28.9043953 32.0273438,26.3422101 C32.0273438,24.0068521 34.1097656,22.3322718 36.3400781,22.3322718 Z M27.2369531,25.2481854 C27.6004688,25.2481854 28.0896094,25.3513953 28.5330469,25.5793953 L28.6129688,26.7400373 L28.3514063,26.7400373 C28.2377344,26.0229632 27.84,25.6131731 27.1108594,25.6131731 C26.6557031,25.6131731 26.22375,25.8747163 26.22375,26.3644941 C26.22375,27.697778 28.8630469,27.2870496 28.8630469,29.0751607 C28.8630469,29.8262471 28.2607031,30.6244817 26.9060156,30.6244817 C26.4513281,30.6244817 25.9155469,30.464741 25.5185156,30.2369755 L25.3926563,28.9271484 L25.5975,28.8696792 C25.7458594,29.6212348 26.2000781,30.2599632 27.0323438,30.2599632 C27.7026563,30.2599632 27.9527344,29.8494694 27.9527344,29.4511731 C27.9527344,28.1066299 25.4728125,28.5398768 25.4728125,26.7064941 C25.4728125,26.0680002 25.9851563,25.2481854 27.2369531,25.2481854 Z M14.6974219,25.2479508 C15.6632813,25.2479508 16.0045313,25.9542348 16.0045313,26.8425434 L16.0045313,29.7802718 C16.0045313,30.122741 16.2119822,30.1538745 16.4888299,30.1567049 L16.7791406,30.1569879 L16.7791406,30.4532471 C16.3795313,30.4532471 15.9817969,30.4307286 15.5725781,30.4307286 C15.1626563,30.4307286 14.7527344,30.4412842 14.3430469,30.4532471 L14.3430469,30.1569879 L14.5483594,30.1569879 C14.8671094,30.1569879 15.09375,30.1569879 15.09375,29.7802718 L15.09375,26.8319879 C15.09375,26.1820002 14.6974219,25.863457 14.0479688,25.863457 C13.6835156,25.863457 13.1032031,26.1590126 12.7265625,26.4107039 L12.7265625,29.7802718 C12.7265625,30.122741 12.9344008,30.1538745 13.2116712,30.1567049 L13.5011719,30.1569879 L13.5011719,30.4532471 C13.1032031,30.4532471 12.7047656,30.4307286 12.294375,30.4307286 C11.885625,30.4307286 11.4754688,30.4412842 11.06625,30.4532471 L11.06625,30.1569879 L11.2715625,30.1569879 C11.5898438,30.1569879 11.8171875,30.1569879 11.8171875,29.7802718 L11.8171875,26.7627904 C11.8171875,26.3422101 11.6915625,26.2284447 11.1576563,26.0117039 L11.1576563,25.7954323 C11.6460938,25.6361607 12.1122656,25.4874447 12.6590625,25.2479508 C12.6935156,25.2479508 12.7265625,25.2707039 12.7265625,25.3617163 L12.7265625,26.1022471 C13.37625,25.6361607 13.9338281,25.2479508 14.6974219,25.2479508 Z M9.89414062,25.2479508 C9.94992187,25.2479508 9.97335937,25.3164447 9.97335937,25.4083953 L9.97335937,29.7802718 C9.97335937,30.122741 10.1806166,30.1538745 10.4579574,30.1567049 L10.7357812,30.1569879 L10.7357812,30.4532471 C10.3488281,30.4532471 9.94992187,30.4307286 9.54164062,30.4307286 C9.13195312,30.4307286 8.72203125,30.4412842 8.30132812,30.4532471 L8.30132812,30.1569879 L8.51695312,30.1569879 C8.83546875,30.1569879 9.06328125,30.1569879 9.06328125,29.7802718 L9.06328125,26.6942965 C9.06328125,26.1939632 8.89289062,26.1247657 8.47125,25.8977039 L8.47125,25.7159138 C9.00609375,25.5550002 9.64382812,25.340136 9.68882812,25.3058891 C9.76898437,25.2601484 9.83625,25.2479508 9.89414062,25.2479508 Z M41.1297656,21.7514817 C41.199375,21.7514817 41.221875,21.8206792 41.221875,21.9121607 L41.221875,29.7802718 C41.221875,30.122741 41.4289385,30.1538745 41.7057159,30.1567049 L41.9833594,30.1569879 L41.9833594,30.4532471 C41.5975781,30.4532471 41.199375,30.4307286 40.7894531,30.4307286 C40.38,30.4307286 39.9707813,30.4412842 39.5491406,30.4532471 L39.5491406,30.1569879 L39.7645313,30.1569879 C40.0842188,30.1569879 40.3113281,30.1569879 40.3113281,29.7802718 L40.3113281,23.4384941 C40.3113281,22.6974941 40.1409375,22.6749755 39.7080469,22.5494817 L39.7080469,22.3669879 C40.1629688,22.2192101 40.6413281,22.0146669 40.8808594,21.8769755 C41.004375,21.8096546 41.09625,21.7514817 41.1297656,21.7514817 Z M24.4490625,25.2479508 C24.7333594,25.2479508 25.0971094,25.4414694 25.0971094,25.8517286 C25.0971094,26.1590126 24.8819531,26.4336916 24.5634375,26.4336916 C24.2095313,26.4336916 24.2095313,26.1590126 23.8108594,26.1590126 C23.6177344,26.1590126 22.9804688,26.4217286 22.9804688,27.1054941 L22.9804688,29.7802718 C22.9804688,30.122741 23.1683561,30.1538745 23.4419991,30.1567049 L24.163125,30.1569879 L24.163125,30.4532471 C23.5373438,30.4412842 23.0610938,30.4307286 22.57125,30.4307286 C22.1046094,30.4307286 21.6264844,30.4412842 21.2170313,30.4532471 L21.2170313,30.1569879 L21.5245313,30.1569879 C21.841875,30.1569879 22.0696875,30.1569879 22.0696875,29.7802718 L22.0696875,26.5807657 C22.0696875,26.2284447 21.6489844,26.1590126 21.478125,26.0680002 L21.478125,25.8977039 C22.30875,25.5444447 22.7641406,25.2479508 22.8682031,25.2479508 C22.9347656,25.2479508 22.9689844,25.2821978 22.9689844,25.3966669 L22.9689844,26.4217286 L22.9928906,26.4217286 C23.2764844,25.9776916 23.7553125,25.2479508 24.4490625,25.2479508 Z M3.35109375,22.5039755 C6.29765625,22.5039755 7.90265625,24.4731731 7.90265625,26.4897533 C7.90265625,27.6182595 7.24265625,30.4532471 3.21421875,30.4532471 C2.634375,30.4532471 2.09882812,30.4307286 1.56421875,30.4307286 C1.05257812,30.4307286 0.551015625,30.4412842 0.039609375,30.4532471 L0.039609375,30.1569879 C0.721640625,30.0880249 1.05257812,30.065741 1.085625,29.2914323 L1.085625,23.7675928 C1.085625,22.7434694 0.551015625,22.8107904 0.039609375,22.8000002 L0.039609375,22.5039755 C0.483046875,22.5255558 0.937734375,22.5255558 1.38234375,22.5255558 C1.86,22.5255558 2.50851562,22.5039755 3.35109375,22.5039755 Z M50.2010156,25.863457 C49.7782031,25.863457 49.4261719,26.1371978 49.1191406,26.3994447 L49.1191406,29.1659385 C49.1191406,29.5984817 49.5290625,30.3279879 50.29125,30.3279879 C51.5085938,30.3279879 52.0204688,29.1319262 52.0204688,28.1178891 C52.0204688,26.8882842 51.0883594,25.863457 50.2010156,25.863457 Z M3.08882812,22.8687286 C2.62125,22.8687286 2.40609375,22.9020373 2.20078125,22.9142348 L2.20078125,29.1087039 C2.20078125,29.9859879 2.82726562,30.0880249 3.38460937,30.0880249 C5.84320312,30.0880249 6.64992187,28.2321237 6.64992187,26.5354941 C6.64992187,24.4058521 5.2846875,22.8687286 3.08882812,22.8687286 Z M18.9860156,25.6131731 C18.2925,25.6131731 17.814375,26.1247657 17.6779688,26.9455187 L19.6589063,26.9455187 C19.9427344,26.9455187 19.9760156,26.7972718 19.9760156,26.6600496 C19.9760156,26.0801978 19.6235156,25.6131731 18.9860156,25.6131731 Z M9.51867187,22.377778 C9.81398437,22.377778 10.0764844,22.617741 10.0764844,22.9254941 C10.0764844,23.2334817 9.82546875,23.4947904 9.51867187,23.4947904 C9.2221875,23.4947904 8.96109375,23.2215187 8.96109375,22.9254941 C8.96109375,22.6402595 9.23460937,22.377778 9.51867187,22.377778 Z" id="Combined-Shape" fill="#1A1919"></path>
                    <path d="M31.31625,10.8515805 C31.3120313,8.16390146 29.6334375,5.87170393 27.268125,4.96392616 L27.268125,16.7387657 C29.6334375,15.829815 31.3120313,13.5397286 31.31625,10.8515805 Z M22.7559375,16.73642 L22.7559375,4.965099 C20.3927344,5.87569159 18.7167188,8.16460517 18.7103906,10.8515805 C18.7167188,13.5378521 20.3927344,15.8265311 22.7559375,16.73642 Z M25.0132031,0.899098996 C19.5213281,0.901210107 15.0719531,5.35518542 15.0710156,10.8515805 C15.0719531,16.3472718 19.5213281,20.8005434 25.0132031,20.8014817 C30.5050781,20.8005434 34.9553906,16.3472718 34.9567969,10.8515805 C34.9553906,5.35518542 30.5050781,0.901210107 25.0132031,0.899098996 Z M24.9888281,21.740817 C18.9792188,21.7693089 14.0329688,16.8966299 14.0329688,10.9651113 C14.0329688,4.48259282 18.9792188,-0.00117260936 24.9888281,5.32907052e-14 L27.8050781,5.32907052e-14 C33.7436719,-0.00117260936 39.1635938,4.48048171 39.1635938,10.9651113 C39.1635938,16.8945187 33.7436719,21.740817 27.8050781,21.740817 L24.9888281,21.740817 L24.9888281,21.740817 Z" id="Fill-43" fill="#184977"></path>
                </g>
            </g>
        </g>
    </g>
</svg>