<?xml version="1.0" encoding="UTF-8"?>
<svg width="85px" height="55px" viewBox="0 0 85 55" version="1.1" xmlns="http://www.w3.org/2000/svg" xmlns:xlink="http://www.w3.org/1999/xlink">
    <!-- Generator: Sketch 54.1 (76490) - https://sketchapp.com -->
    <title>payment_amex</title>
    <desc>Created with Sketch.</desc>
    <g id="Symbols" stroke="none" stroke-width="1" fill="none" fill-rule="evenodd">
        <g id="Payment-Icon-/-American-Express">
            <g id="payment_amex">
                <rect id="Card" stroke="#CCCCCC" fill="#006FCF" x="0.5" y="0.5" width="84" height="54" rx="3"></rect>
                <g id="amex" transform="translate(12.000000, 19.000000)" fill="#FFFFFF">
                    <path d="M50.4856732,12.8197088 L48.734119,12.8197088 C48.3453713,12.8197088 48.1020999,12.5707134 48.1020999,12.2221198 C48.1020999,11.8735261 48.393539,11.6743298 48.734119,11.6743298 L51.8966475,11.6743298 L52.6264618,10.0309598 L48.734119,10.0309598 C47.1290142,10.0309598 46.2040962,11.0269416 46.2040962,12.3217179 C46.2040962,13.7160925 47.0798733,14.5128779 48.4908476,14.5128779 L50.2424018,14.5128779 C50.6316361,14.5128779 50.8749075,14.7618734 50.8749075,15.110965 C50.8749075,15.4590607 50.6316361,15.7080561 50.2424018,15.7080561 L46.4473676,15.7080561 L46.4473676,17.3519241 L50.2424018,17.3519241 C51.8479932,17.3519241 52.7724246,16.4052434 52.7724246,15.0108688 C52.7724246,13.6164943 51.9453018,12.8197088 50.4856732,12.8197088" id="Path"></path>
                    <path d="M57.4432359,12.8197088 L55.6916817,12.8197088 C55.3024474,12.8197088 55.059176,12.5707134 55.059176,12.2221198 C55.059176,11.8735261 55.3511017,11.6743298 55.6916817,11.6743298 L58.8542101,11.6743298 L59.5840244,10.0309598 L55.6916817,10.0309598 C54.0860903,10.0309598 53.1616589,11.0269416 53.1616589,12.3217179 C53.1616589,13.7160925 54.037436,14.5128779 55.4484102,14.5128779 L57.1999645,14.5128779 C57.5896853,14.5128779 57.8329567,14.7618734 57.8329567,15.110965 C57.8329567,15.4590607 57.5896853,15.7080561 57.1999645,15.7080561 L53.4049303,15.7080561 L53.4049303,17.3519241 L57.1999645,17.3519241 C58.8060424,17.3519241 59.7299873,16.4052434 59.7299873,15.0108688 C59.7299873,13.6164943 58.9028644,12.8197088 57.4432359,12.8197088" id="Path"></path>
                    <polygon id="Fill-3" points="39.3925937 17.301627 45.3770707 17.301627 45.3770707 15.658257 41.2901108 15.658257 41.2901108 14.4630788 45.2797621 14.4630788 45.2797621 12.8197088 41.2901108 12.8197088 41.2901108 11.6743298 45.3770707 11.6743298 45.3770707 10.0309598 39.3925937 10.0309598"></polygon>
                    <path d="M28.3969201,10.0311589 C29.9533707,10.0311589 30.9264563,11.0271408 30.9264563,12.4713144 C30.9264563,13.865689 29.9533707,14.9114699 28.3477793,14.9114699 L26.1583365,14.9114699 L26.1583365,17.3018262 L24.2613059,17.3018262 L24.2613059,10.0311589 L28.3969201,10.0311589 Z M28.202303,13.2680999 C28.7370136,13.2680999 29.0294258,12.9195062 29.0775935,12.4713144 C29.0775935,12.0231226 28.7861544,11.674529 28.202303,11.674529 L26.1583365,11.674529 L26.1583365,13.2680999 L28.202303,13.2680999 Z" id="Combined-Shape"></path>
                    <path d="M38.4197027,12.3717162 C38.4197027,13.5170953 37.6898884,14.413479 36.521699,14.6624744 L38.8575912,17.3018262 L36.521699,17.3018262 L34.3813971,14.7620726 L33.6997506,14.7620726 L33.6997506,17.3018262 L31.80272,17.3018262 L31.80272,10.0311589 L35.8891933,10.0311589 C37.446617,10.0311589 38.4197027,10.9773417 38.4197027,12.3717162 Z M35.6459219,13.1187026 C36.1816056,13.1187026 36.4735313,12.819908 36.521699,12.4215153 C36.521699,12.0231226 36.2302599,11.674529 35.6459219,11.674529 L33.6515828,11.674529 L33.6515828,13.1187026 L35.6459219,13.1187026 Z" id="Combined-Shape"></path>
                    <polygon id="Fill-7" points="23.9206286 10.0311589 21.4879144 10.0311589 19.6390516 12.222319 17.7897023 10.0311589 15.3088203 10.0311589 18.4226945 13.6166935 15.260166 17.3018262 17.6928803 17.3018262 19.5903973 15.011068 21.5365687 17.3018262 24.0179372 17.3018262 20.8067545 13.5668944"></polygon>
                    <polygon id="Fill-9" points="8.98366606 17.301627 14.968143 17.301627 14.968143 15.658257 10.8811831 15.658257 10.8811831 14.4630788 14.8708345 14.4630788 14.8708345 12.8197088 10.8811831 12.8197088 10.8811831 11.6743298 14.968143 11.6743298 14.968143 10.0309598 8.98366606 10.0309598"></polygon>
                    <polygon id="Fill-11" points="56.8281554 4.4320195 53.9088983 0.000398392728 51.5248384 0.000398392728 51.5248384 7.27056768 53.4223555 7.27056768 53.4223555 2.63925222 56.3902668 7.27056768 58.6770182 7.27056768 58.6770182 0.000398392728 56.8281554 0.000398392728"></polygon>
                    <path d="M39.361316,3.68528213 L39.361316,3.53588486 C39.361316,2.44030485 39.9451674,1.69331849 41.1615245,1.69331849 L43.302313,1.69331849 L43.302313,0.000149397273 L41.0155616,0.000149397273 C38.680156,0.000149397273 37.4637989,1.54392122 37.4637989,3.53588486 L37.4637989,3.68528213 C37.4637989,5.92624122 38.8261189,7.22101759 40.9182531,7.22101759 L41.5507588,7.22101759 L42.3292273,5.57764759 L41.2101788,5.57764759 C40.0911302,5.62744668 39.361316,4.98005849 39.361316,3.68528213 L39.361316,3.68528213 Z" id="Path"></path>
                    <path d="M45.5890644,0.000149397273 L48.0217786,0.000149397273 L51.2329613,7.27081668 L49.0921728,7.27081668 L48.4596671,5.77684395 L45.1511758,5.77684395 L44.5673244,7.27081668 L42.4751902,7.27081668 L45.5890644,0.000149397273 Z M45.7836815,4.18327304 L47.7298529,4.18327304 L46.7567672,1.74311758 L45.7836815,4.18327304 Z" id="Combined-Shape"></path>
                    <polygon id="Fill-15" points="34.5932934 0.000199196364 34.5932934 3.63553284 34.5932934 7.27086648 35.5177248 7.27086648 36.4908105 7.27086648 36.4908105 3.63553284 36.4908105 0.000199196364"></polygon>
                    <path d="M33.5715048,2.34060707 C33.5715048,3.48598617 32.8903448,4.3823698 31.722642,4.63136526 L34.0580477,7.27071708 L31.6739877,7.27071708 L29.5331992,4.73096344 L28.8520392,4.73096344 L28.8520392,7.27071708 L26.9545221,7.27071708 L26.9545221,4.9799091e-05 L31.041482,4.9799091e-05 C32.5984191,4.9799091e-05 33.5715048,0.946232528 33.5715048,2.34060707 Z M30.7982106,3.08759344 C31.382062,3.08759344 31.6739877,2.78879889 31.6739877,2.39040617 C31.6739877,1.99201344 31.382062,1.6434198 30.7982106,1.6434198 L28.8033849,1.6434198 L28.8033849,3.08759344 L30.7982106,3.08759344 Z" id="Combined-Shape"></path>
                    <polygon id="Fill-19" points="19.7050338 7.27066728 25.6895108 7.27066728 25.6895108 5.62729728 21.6025509 5.62729728 21.6025509 4.4321191 25.5922022 4.4321191 25.5922022 2.78874909 21.6025509 2.78874909 21.6025509 1.64337 25.6895108 1.64337 25.6895108 -2.39808173e-14 19.7050338 -2.39808173e-14"></polygon>
                    <polygon id="Fill-21" points="13.6719512 4.58181516 12.0663598 0.000298794546 9.09844847 0.000298794546 9.09844847 7.27046809 10.9473113 7.27046809 10.9473113 2.04156353 12.7961741 7.27046809 14.499074 7.27046809 16.3965911 2.04156353 16.3965911 7.27046809 18.2454539 7.27046809 18.2454539 0.000298794546 15.2775426 0.000298794546"></polygon>
                    <path d="M3.11387419,0.000199196364 L-2.84217094e-14,7.27086648 L2.09213422,7.27086648 L2.67598564,5.77689375 L5.98447697,5.77689375 L6.61698266,7.27086648 L8.75777117,7.27086648 L5.59524269,0.000199196364 L3.11387419,0.000199196364 Z M3.35714562,4.18282485 L4.3302313,1.74316738 L5.30331699,4.18282485 L3.35714562,4.18282485 Z" id="Fill-23"></path>
                </g>
            </g>
        </g>
    </g>
</svg>