<?xml version="1.0" encoding="UTF-8"?>
<svg width="85px" height="55px" viewBox="0 0 85 55" version="1.1" xmlns="http://www.w3.org/2000/svg" xmlns:xlink="http://www.w3.org/1999/xlink">
    <!-- Generator: Sketch 54.1 (76490) - https://sketchapp.com -->
    <title>payment_twint</title>
    <desc>Created with Sketch.</desc>
    <defs>
        <linearGradient x1="34.1802119%" y1="4.2690815%" x2="65.1717405%" y2="68.4851496%" id="linearGradient-1">
            <stop stop-color="#FFCC00" offset="0%"></stop>
            <stop stop-color="#FF0000" offset="100%"></stop>
        </linearGradient>
        <linearGradient x1="36.9073928%" y1="13.7914835%" x2="66.0560179%" y2="87.0618381%" id="linearGradient-2">
            <stop stop-color="#00B4E6" offset="0%"></stop>
            <stop stop-color="#054696" offset="100%"></stop>
        </linearGradient>
    </defs>
    <g id="Symbols" stroke="none" stroke-width="1" fill="none" fill-rule="evenodd">
        <g id="Payment-Icon-/-Twint">
            <g id="payment_twint">
                <rect id="Card" stroke="#CCCCCC" fill="#000000" x="0.5" y="0.5" width="84" height="54" rx="3"></rect>
                <g id="twint" transform="translate(8.000000, 16.000000)">
                    <path d="M40.4525,10.907625 L40.526,11.362625 L42.6505,17.056125 L43.5715,17.056125 L46.458,6.874125 L44.2345,6.874125 L42.859,12.223625 L42.7735,12.801625 L42.663,12.223625 L40.8205,6.874125 L40.084,6.874125 L38.2415,12.223625 L38.131,12.801625 L38.0575,12.223625 L36.682,6.874125 L34.447,6.874125 L37.3335,17.056125 L38.2545,17.056125 L40.379,11.362625 L40.452,10.907625 L40.4525,10.907625 Z M48.1155,17.056125 L50.3755,17.056125 L50.3755,6.874125 L48.1155,6.874125 L48.1155,17.056125 Z M56.638,6.554625 C54.096,6.554625 52.684,8.177625 52.684,10.526625 L52.684,17.056625 L54.943,17.056625 L54.943,10.477625 C54.943,9.457125 55.5455,8.670125 56.663,8.670125 C57.78,8.670125 58.3695,9.604625 58.3695,10.477625 L58.3695,17.056625 L60.6295,17.056625 L60.6295,10.526625 C60.642,8.177625 59.18,6.554625 56.638,6.554625 L56.638,6.554625 Z M33.2805,6.874125 L25.2005,6.874125 L25.2005,8.804625 L28.098,8.804625 L28.098,17.056125 L30.382,17.056125 L30.382,8.804625 L33.28,8.804625 L33.2805,6.874125 Z M69.9385,6.874125 L61.8695,6.874125 L61.8695,8.804625 L64.768,8.804625 L64.768,17.056125 L67.0515,17.056125 L67.0515,8.804625 L69.938,8.804625 L69.9385,6.874125 Z M19.8945,16.552625 C19.8945,16.847125 19.6855,17.204125 19.4285,17.351625 L10.414,22.565625 C10.156,22.713125 9.7385,22.713125 9.481,22.565625 L0.4665,17.351625 C0.2085,17.204125 -2.55795385e-13,16.847625 -2.55795385e-13,16.552625 L-2.55795385e-13,6.124125 C-2.55795385e-13,5.829125 0.209,5.472125 0.4665,5.324625 L9.481,0.110625 C9.7385,-0.036875 10.156,-0.036875 10.414,0.110625 L19.4285,5.324625 C19.686,5.472125 19.8945,5.828625 19.8945,6.124125 L19.8945,16.552625 Z" id="Fill-1" fill="#FFFFFF"></path>
                    <path d="M7.4047,8.116275 C6.7537,9.457275 7.3187,10.501775 7.5642,10.858775 L7.5642,10.858775 C7.5642,10.858775 8.3377,11.991275 8.9767,12.949775 L8.9767,12.949775 L10.0207,14.461775 L11.5927,16.872775 C11.6052,16.884775 11.8507,17.266275 12.2927,17.266275 L12.2927,17.266275 C12.7107,17.266275 12.9682,16.884775 13.0052,16.848275 L13.0052,16.848275 L16.6892,11.388275 L14.6507,11.388275 L14.6507,11.363275 L14.6507,11.362275 L12.2927,14.817775 L11.0892,12.973775 L12.4762,10.895775 C12.7347,10.526775 13.2872,9.506275 12.6487,8.116275 L12.6487,8.116275 C12.1327,6.985275 11.0152,6.444275 10.0332,6.444275 L10.0332,6.444275 C9.0502,6.444275 7.9817,6.948275 7.4047,8.116275 M9.0012,9.862275 C8.5712,9.160775 9.0502,8.116275 10.0207,8.116275 L10.0207,8.116275 C10.9912,8.116275 11.4697,9.161775 11.0402,9.862275 L11.0402,9.862275 C10.6472,10.514275 10.0207,11.448775 10.0207,11.448775 L10.0207,11.448775 C10.0207,11.448775 9.4067,10.514275 9.0012,9.862275" id="Fill-4" fill="url(#linearGradient-1)"></path>
                    <path d="M2.8367,8.116275 C2.1857,9.456775 2.7507,10.501275 2.9962,10.858275 L2.9962,10.858275 L7.0367,16.847775 C7.0737,16.896275 7.3312,17.278275 7.7607,17.278275 L7.7607,17.278275 C8.1912,17.278275 8.4367,16.909775 8.4737,16.859775 L8.4737,16.859775 L9.6897,15.002775 L8.6457,13.466275 L7.7617,14.708275 L7.7607,14.707775 L5.4522,11.460775 C5.4522,11.460775 4.8382,10.526775 4.4327,9.874775 L4.4327,9.874775 C4.0027,9.173775 4.4817,8.128775 5.4522,8.128775 L5.4522,8.128775 C5.5752,8.128775 5.6857,8.141275 5.7962,8.177775 L5.7962,8.177775 L6.6067,6.689775 C6.2382,6.529775 5.8332,6.443775 5.4647,6.443775 L5.4647,6.443775 C4.4822,6.443775 3.4137,6.947775 2.8367,8.116275" id="Fill-7" fill="url(#linearGradient-2)"></path>
                </g>
            </g>
        </g>
    </g>
</svg>