<?xml version="1.0" encoding="UTF-8"?>
<svg width="85px" height="55px" viewBox="0 0 85 55" version="1.1" xmlns="http://www.w3.org/2000/svg" xmlns:xlink="http://www.w3.org/1999/xlink">
    <!-- Generator: Sketch 53.2 (72643) - https://sketchapp.com -->
    <title>payment_postfinance</title>
    <desc>Created with Sketch.</desc>
    <g id="Icons" stroke="none" stroke-width="1" fill="none" fill-rule="evenodd">
        <g id="Payment-Icons_Icons" transform="translate(-300.000000, -325.000000)">
            <g id="payment_postfinance" transform="translate(300.000000, 325.000000)">
                <rect id="Card" stroke="#CCCCCC" fill="#FCD205" x="0.5" y="0.5" width="84" height="54" rx="3"></rect>
                <g id="postfinance" transform="translate(8.000000, 22.000000)" fill-rule="nonzero">
                    <polyline id="path24" fill="#FFFFFF" transform="translate(29.837107, 10.087212) scale(-1, 1) rotate(-180.000000) translate(-29.837107, -10.087212) " points="58.9518423 8.3672 59.6742145 11.807225 0.723018466 11.807225 -7.10542736e-14 8.3672 58.9518423 8.3672"></polyline>
                    <path d="M66.0522685,8.128525 C66.0522685,8.128525 66.8427514,11.773025 66.8536889,11.807225 L61.8303935,11.807225 C61.8303935,11.784175 60.7918281,6.970725 60.7918281,6.947875 C60.8027656,6.947875 62.078973,6.947875 62.078973,6.947875 C62.0899105,6.947875 62.8689588,10.581075 62.8689588,10.581075 L65.307027,10.581075 C65.307027,10.581075 64.5394134,6.936725 64.5170412,6.913675 C64.5394134,6.913675 68.2308196,6.913675 68.2308196,6.913675 L67.7455923,4.666025 C67.7455923,4.666025 64.0656207,4.666025 64.0536889,4.666025 C64.0536889,4.643175 63.3089446,1.237325 63.3089446,1.237325 C63.3089446,1.237325 60.5432486,1.237325 60.5208764,1.237325 C60.5208764,1.226175 60.2722969,0.01133 60.2613594,-1.24344979e-14 L64.3698821,-1.24344979e-14 C64.3698821,0.01133 65.1041861,3.440025 65.1041861,3.440025 C65.1041861,3.440025 68.772723,3.440025 68.7955923,3.440025 C68.7955923,3.451375 69.766544,8.106075 69.766544,8.128525 L66.0522685,8.128525" id="path26" fill="#ED1C24" transform="translate(65.013952, 5.903612) scale(-1, 1) rotate(-180.000000) translate(-65.013952, -5.903612) "></path>
                    <path d="M56.9622116,6.00585 C57.4926804,6.00585 57.8541151,5.64275 57.8541151,5.041 C57.8541151,4.93905 57.8426804,4.8482 57.8317429,4.74605 L55.5398395,4.74605 C55.7769844,5.5064 56.2845838,6.00585 56.9622116,6.00585 Z M58.1021974,1.4873 L58.3960185,2.83845 C57.8993565,2.6685 57.4136321,2.5324 56.7931776,2.5324 C56.0703082,2.5324 55.438419,2.7818 55.4046122,3.6562 L59.1298253,3.6562 C59.2650526,4.0992 59.3441009,4.54155 59.3441009,4.95015 C59.3441009,6.1992 58.6217287,7.22125 57.0750668,7.22125 C55.0655497,7.22125 53.8465156,5.56305 53.8465156,3.7353 C53.8465156,2.1689 54.885081,1.249 56.4993565,1.249 C57.1541151,1.249 57.6731491,1.35155 58.1021974,1.4873 L58.1021974,1.4873 L58.1021974,1.4873 Z M51.972723,2.63435 C51.2389162,2.63435 50.7422543,2.9521 50.7422543,3.87165 C50.7422543,4.95015 51.4193849,5.84725 52.4922543,5.84725 C52.8308196,5.84725 53.2146264,5.7451 53.5984332,5.59725 L53.8693849,6.89155 C53.428902,7.05035 52.9093707,7.16405 52.3903366,7.16405 C50.6179645,7.16405 49.1051094,5.8359 49.1051094,3.79195 C49.1051094,2.1119 50.1327372,1.31755 51.6112884,1.31755 C52.1079503,1.31755 52.5255639,1.40815 52.8308196,1.5328 L53.1241435,2.8615 C52.7855781,2.7365 52.4127088,2.63435 51.972723,2.63435 L51.972723,2.63435 L51.972723,2.63435 Z M44.1723963,1.4195 L44.7932486,4.29195 C45.0414304,5.4498 45.6062031,5.84725 46.1930497,5.84725 C46.9494773,5.84725 47.0398111,5.27925 46.8928011,4.6324 L46.2154219,1.4195 L47.8298963,1.4195 L48.5408338,4.7119 C48.8908338,6.358 48.1346548,7.22125 46.9494773,7.22125 C46.2944205,7.22125 45.6625313,6.95995 45.1204787,6.38085 L45.2670909,7.05035 L43.765919,7.05035 L42.5579716,1.4195 L44.1723963,1.4195 L44.1723963,1.4195 Z M38.3702017,3.04295 C38.3702017,3.6103 38.8667642,3.9287 39.6905568,3.9287 C39.8490511,3.9287 40.1984048,3.91695 40.514946,3.87165 L40.4469844,3.5537 C40.254733,2.88435 39.7134759,2.42965 39.0703011,2.42965 C38.607098,2.42965 38.3702017,2.6568 38.3702017,3.04295 L38.3702017,3.04295 Z M39.9280994,7.1871 C39.1829077,7.1871 38.4265298,7.01655 38.1782983,6.9371 L37.9073963,5.6314 C38.2680355,5.73335 38.9794205,5.92675 39.6119062,5.92675 C40.4582699,5.92675 40.7631776,5.6656 40.7631776,5.22265 C40.7631776,5.1435 40.7631776,5.0523 40.7408054,4.9619 L40.7179361,4.8482 C40.3116577,4.8935 39.9280994,4.9273 39.7468849,4.9273 C38.1443423,4.9273 36.8577443,4.3033 36.8577443,2.8271 C36.8577443,1.8623 37.6024886,1.28315 38.573142,1.28315 C39.261956,1.28315 39.8490511,1.55565 40.2326094,2.00975 L40.1083196,1.4195 L41.5419276,1.4195 L42.242027,4.6435 C42.2983551,4.8824 42.3206776,5.1318 42.3206776,5.3701 C42.3206776,6.3355 41.7905071,7.1871 39.9280994,7.1871 L39.9280994,7.1871 L39.9280994,7.1871 Z M32.1050028,1.4195 L32.725706,4.29195 C32.9742855,5.4498 33.5382131,5.84725 34.1259048,5.84725 C34.8823324,5.84725 34.9724176,5.27925 34.8260043,4.6324 L34.1482273,1.4195 L35.7624531,1.4195 L36.4732415,4.7119 C36.8233906,6.358 36.0673608,7.22125 34.8823324,7.22125 C34.226679,7.22125 33.5945412,6.95995 33.0529361,6.38085 L33.1995483,7.05035 L31.6983764,7.05035 L30.490429,1.4195 L32.1050028,1.4195 L32.1050028,1.4195 Z M29.2152656,8.606 C29.1809119,8.0953 29.5537812,7.6978 30.0503437,7.6978 C30.6034332,7.6978 30.998625,8.0953 31.0320341,8.606 C31.0662386,9.11675 30.693767,9.51425 30.196956,9.51425 C29.6440653,9.51425 29.2488736,9.11675 29.2152656,8.606 L29.2152656,8.606 Z M28.9890582,7.05035 L27.7813097,1.4195 L29.3844489,1.4195 L30.5923963,7.05035 L28.9890582,7.05035 Z M24.4281705,1.4195 L25.0603082,4.35995 L27.4991222,4.35995 L27.7929432,5.80175 L25.3654148,5.80175 L25.7382841,7.607 L28.3007912,7.607 L28.6167358,9.049 L24.3837244,9.049 L22.7805852,1.4195 L24.4281705,1.4195 Z M22.8367145,5.81305 L23.0965298,7.05035 L21.3696974,7.05035 L21.7079645,8.61715 L20.025777,8.24275 L18.9759261,3.42925 C18.6829006,2.0664 19.427446,1.31755 20.7820057,1.31755 C21.0647898,1.31755 21.5384332,1.374 21.8775455,1.4873 L22.1484474,2.72515 C21.8775455,2.6568 21.5384332,2.58885 21.2454077,2.58885 C20.7820057,2.58885 20.4547756,2.74765 20.5680284,3.3156 L21.0987457,5.81305 L22.8367145,5.81305 Z M16.7183267,3.0771 C16.7183267,2.62265 16.1654361,2.5435 15.7026307,2.5435 C15.1153864,2.5435 14.4609261,2.7021 14.1113736,2.816 L13.839875,1.5445 C14.348071,1.4195 14.9914943,1.31755 15.6009119,1.31755 C17.0455568,1.31755 18.2200952,1.8623 18.2200952,3.2246 C18.2200952,4.98435 16.1203935,4.6777 16.1203935,5.4609 C16.1203935,5.81305 16.4590582,5.93805 16.9892287,5.93805 C17.4970767,5.93805 18.2090582,5.73335 18.4457557,5.6656 L18.7166577,6.9482 C18.2313807,7.08455 17.655571,7.16405 17.1360398,7.16405 C15.567304,7.16405 14.6191719,6.45995 14.6191719,5.2906 C14.6191719,3.57675 16.7183267,3.8603 16.7183267,3.0771 L16.7183267,3.0771 L16.7183267,3.0771 Z M10.6452301,1.249 C12.4177017,1.249 13.6142145,2.5435 13.8851165,4.23495 C14.1675028,5.92675 13.2306562,7.22125 11.4579858,7.22125 C9.68586222,7.22125 8.48920028,5.92675 8.21824858,4.23495 C7.9361108,2.5435 8.87310653,1.249 10.6452301,1.249 L10.6452301,1.249 L10.6452301,1.249 Z M10.7924389,2.55465 C10.1486676,2.55465 9.6408196,3.0656 9.87751705,4.23495 C10.1144631,5.40425 10.6791861,5.915 11.3226094,5.915 C11.9661818,5.915 12.4742287,5.39315 12.2256491,4.23495 C11.9885043,3.0771 11.4356136,2.55465 10.7924389,2.55465 L10.7924389,2.55465 Z M3.98503835,3.74705 L4.6964233,3.74705 C6.96545739,3.74705 8.22993182,4.87065 8.22993182,6.7441 C8.22993182,8.1406 7.2470483,9.049 5.56525852,9.049 L3.46615341,9.049 L1.86298437,1.4195 L3.48847585,1.4195 L3.98503835,3.74705 L3.98503835,3.74705 Z M4.26722585,5.1435 L4.79779403,7.6523 L5.4751733,7.6523 C6.22031534,7.6523 6.58115341,7.34565 6.58115341,6.63045 C6.58115341,5.7109 6.00574148,5.1435 4.94500284,5.1435 L4.26722585,5.1435 L4.26722585,5.1435 Z" id="path28" fill="#231F20" transform="translate(30.603543, 5.381625) scale(-1, 1) rotate(-180.000000) translate(-30.603543, -5.381625) "></path>
                </g>
            </g>
        </g>
    </g>
</svg>