<?xml version="1.0" encoding="UTF-8"?>
<svg width="85px" height="55px" viewBox="0 0 85 55" version="1.1" xmlns="http://www.w3.org/2000/svg" xmlns:xlink="http://www.w3.org/1999/xlink">
    <!-- Generator: Sketch 60.1 (88133) - https://sketch.com -->
    <title>payment_googlepay</title>
    <desc>Created with Sketch.</desc>
    <g id="Symbols" stroke="none" stroke-width="1" fill="none" fill-rule="evenodd">
        <g id="Payment-Icon-/-Google-Pay">
            <g id="payment_googlepay">
                <rect id="Card" stroke="#CCCCCC" fill="#FFFFFF" x="0.5" y="0.5" width="84" height="54" rx="3"></rect>
                <g id="google-pay" transform="translate(12.000000, 16.000000)" fill-rule="nonzero">
                    <path d="M29.1,11.775 L29.1,18.75 L26.85,18.75 L26.85,1.5 L32.7,1.5 C34.125,1.5 35.475,2.025 36.525,3 C37.575,3.9 38.1,5.25 38.1,6.675 C38.1,8.1 37.575,9.375 36.525,10.35 C35.475,11.325 34.2,11.85 32.7,11.85 L29.1,11.775 L29.1,11.775 Z M29.1,3.6 L29.1,9.6 L32.85,9.6 C33.675,9.6 34.5,9.3 35.025,8.7 C36.225,7.575 36.225,5.7 35.1,4.575 C35.1,4.575 35.025,4.5 35.025,4.5 C34.425,3.9 33.675,3.525 32.85,3.6 L29.1,3.6 L29.1,3.6 Z" id="Shape" fill="#5F6368"></path>
                    <path d="M43.275,6.6 C44.925,6.6 46.2,7.05 47.175,7.95 C48.15,8.85 48.6,10.05 48.6,11.55 L48.6,18.75 L46.5,18.75 L46.5,17.1 L46.425,17.1 C45.525,18.45 44.25,19.125 42.75,19.125 C41.475,19.125 40.35,18.75 39.45,18 C38.625,17.25 38.1,16.2 38.1,15.075 C38.1,13.875 38.55,12.9 39.45,12.15 C40.35,11.4 41.625,11.1 43.125,11.1 C44.475,11.1 45.525,11.325 46.35,11.85 L46.35,11.325 C46.35,10.575 46.05,9.825 45.45,9.375 C44.85,8.85 44.1,8.55 43.275,8.55 C42,8.55 41.025,9.075 40.35,10.125 L38.4,8.925 C39.6,7.35 41.175,6.6 43.275,6.6 Z M40.425,15.15 C40.425,15.75 40.725,16.275 41.175,16.575 C41.7,16.95 42.3,17.175 42.9,17.175 C43.8,17.175 44.7,16.8 45.375,16.125 C46.125,15.45 46.5,14.625 46.5,13.725 C45.825,13.2 44.85,12.9 43.575,12.9 C42.675,12.9 41.925,13.125 41.325,13.575 C40.725,13.95 40.425,14.475 40.425,15.15 Z" id="Shape" fill="#5F6368"></path>
                    <polygon id="Path" fill="#5F6368" points="60.75 6.975 53.325 24 51.075 24 53.85 18.075 48.975 7.05 51.375 7.05 54.9 15.525 54.975 15.525 58.425 7.05 60.75 7.05"></polygon>
                    <path d="M20.175,10.275 C20.175,9.6 20.1,8.925 20.025,8.25 L10.65,8.25 L10.65,12.075 L15.975,12.075 C15.75,13.275 15.075,14.4 14.025,15.075 L14.025,17.55 L17.25,17.55 C19.125,15.825 20.175,13.275 20.175,10.275 Z" id="Path" fill="#4285F4"></path>
                    <path d="M10.65,19.95 C13.35,19.95 15.6,19.05 17.25,17.55 L14.025,15.075 C13.125,15.675 12,16.05 10.65,16.05 C8.1,16.05 5.85,14.325 5.1,11.925 L1.8,11.925 L1.8,14.475 C3.525,17.85 6.9,19.95 10.65,19.95 Z" id="Path" fill="#34A853"></path>
                    <path d="M5.1,11.925 C4.65,10.725 4.65,9.375 5.1,8.1 L5.1,5.55 L1.8,5.55 C0.375,8.325 0.375,11.625 1.8,14.475 L5.1,11.925 Z" id="Path" fill="#FBBC04"></path>
                    <path d="M10.65,4.05 C12.075,4.05 13.425,4.575 14.475,5.55 L14.475,5.55 L17.325,2.7 C15.525,1.05 13.125,0.075 10.725,0.15 C6.975,0.15 3.525,2.25 1.875,5.625 L5.175,8.175 C5.85,5.775 8.1,4.05 10.65,4.05 Z" id="Path" fill="#EA4335"></path>
                </g>
            </g>
        </g>
    </g>
</svg>