<?xml version="1.0" encoding="UTF-8"?>
<svg width="85px" height="55px" viewBox="0 0 85 55" version="1.1" xmlns="http://www.w3.org/2000/svg" xmlns:xlink="http://www.w3.org/1999/xlink">
    <!-- Generator: Sketch 54.1 (76490) - https://sketchapp.com -->
    <title>payment_applepay</title>
    <desc>Created with Sketch.</desc>
    <defs>
        <polygon id="path-1" points="0 0.00025 59.6909256 0.00025 59.6909256 25.53225 0 25.53225"></polygon>
    </defs>
    <g id="Symbols" stroke="none" stroke-width="1" fill="none" fill-rule="evenodd">
        <g id="Payment-Icon-/-Apple-Pay">
            <g id="payment_applepay">
                <rect id="Card" stroke="#CCCCCC" fill="#FFFFFF" x="0.5" y="0.5" width="84" height="54" rx="3"></rect>
                <g id="apple-pay" transform="translate(13.000000, 15.000000)">
                    <mask id="mask-2" fill="white">
                        <use xlink:href="#path-1"></use>
                    </mask>
                    <g id="Clip-2"></g>
                    <path d="M56.723157,6.57675 L53.2600165,17.81375 L53.2079504,17.81375 L49.7448099,6.57675 L46.6986942,6.57675 L51.6454711,20.39975 C51.6454711,20.41275 51.3980331,21.22675 51.3980331,21.25325 C50.9686116,22.67075 50.2654711,23.22175 48.9638182,23.22175 C48.7292727,23.22175 48.2606777,23.22175 48.0529091,23.16975 L48.0529091,25.46675 C48.2606777,25.50575 48.9638182,25.53225 49.1983636,25.53225 C52.0362149,25.53225 53.3899339,24.45625 54.5616694,21.10825 L59.6909256,6.57675 L56.723157,6.57675 Z M42.709438,14.12525 L39.3375372,14.33525 C37.6585289,14.45325 36.7084463,15.20125 36.7084463,16.38275 C36.7084463,17.59025 37.6977025,18.37825 39.2076198,18.37825 C41.1732397,18.37825 42.709438,17.01275 42.709438,15.21425 L42.709438,14.12525 Z M45.5086116,10.86925 L45.5086116,20.38625 L42.8135702,20.38625 L42.8135702,18.11525 L42.7486116,18.11525 C41.9547273,19.65125 40.223157,20.62275 38.4266281,20.62275 C35.7444793,20.62275 33.8700992,18.94225 33.8700992,16.46175 C33.8700992,14.04575 35.7053058,12.56275 38.9606777,12.37875 L42.709438,12.15575 L42.709438,11.09275 C42.709438,9.55675 41.6810083,8.63775 39.9628264,8.63775 C38.3353884,8.63775 37.3198512,9.42525 37.0724132,10.65975 L34.4170413,10.65975 C34.5732397,8.16525 36.6821653,6.32725 40.0669587,6.32725 C43.3862975,6.32725 45.5086116,8.09975 45.5086116,10.86925 L45.5086116,10.86925 Z M30.1267934,7.67975 C30.1267934,5.29075 28.6823306,3.92525 26.1563802,3.92525 L22.7973719,3.92525 L22.7973719,11.44675 L26.1434876,11.44675 C28.6823306,11.44675 30.1267934,10.06875 30.1267934,7.67975 L30.1267934,7.67975 Z M33.1079504,7.66625 C33.1079504,11.36825 30.5175372,13.91525 26.8332397,13.91525 L22.7973719,13.91525 L22.7973719,20.38625 L19.8816694,20.38625 L19.8816694,1.44425 L26.9249752,1.44425 C30.5700992,1.44425 33.1079504,3.97775 33.1079504,7.66625 L33.1079504,7.66625 Z M13.849438,10.92225 C13.8236529,8.32175 15.9514215,7.08475 16.0515868,7.00825 C14.8500992,5.21625 12.9732397,5.01425 12.3221653,4.96325 C10.6451405,4.86275 9.21902479,5.92325 8.41819835,5.92325 C7.61687603,5.92325 6.39059504,5.01425 5.06414876,5.03875 C3.33753719,5.06425 1.73538843,6.04875 0.859190083,7.61425 C-0.942793388,10.74575 0.383652893,15.39175 2.13654545,17.94175 C2.98695868,19.20425 4.01290909,20.59325 5.36414876,20.54375 C6.64100826,20.49325 7.14133884,19.71025 8.69340496,19.71025 C10.2444793,19.71025 10.6952231,20.54375 12.0469587,20.51875 C13.448281,20.49325 14.3249752,19.25575 15.1758843,17.99275 C16.1522479,16.55425 16.5514215,15.16525 16.5767107,15.08875 C16.5514215,15.06375 13.8737355,14.02775 13.849438,10.92225 L13.849438,10.92225 Z M8.24464463,4.73575 C8.09439669,3.57075 8.67158678,2.33075 9.32414876,1.57125 C10.0510909,0.68425 11.3066281,0.05175 12.3350579,0.00025 C12.4610083,1.21625 11.9839835,2.40625 11.2813388,3.29275 C10.553405,4.15375 9.39952066,4.83725 8.24464463,4.73575 L8.24464463,4.73575 Z" id="Fill-1" fill="#000000" mask="url(#mask-2)"></path>
                </g>
            </g>
        </g>
    </g>
</svg>