<?xml version="1.0" encoding="UTF-8"?>
<svg width="85px" height="55px" viewBox="0 0 85 55" version="1.1" xmlns="http://www.w3.org/2000/svg" xmlns:xlink="http://www.w3.org/1999/xlink">
    <!-- Generator: Sketch 53.2 (72643) - https://sketchapp.com -->
    <title>payment_maestro</title>
    <desc>Created with Sketch.</desc>
    <g id="Icons" stroke="none" stroke-width="1" fill="none" fill-rule="evenodd">
        <g id="Payment-Icons_Icons" transform="translate(-405.000000, -175.000000)">
            <g id="payment_maestro" transform="translate(405.000000, 175.000000)">
                <rect id="Card" stroke="#CCCCCC" fill="#FFFFFF" x="0.5" y="0.5" width="84" height="54" rx="3"></rect>
                <g id="maestro" transform="translate(17.000000, 8.000000)" fill-rule="nonzero">
                    <polygon id="path3554" fill="#6C6BBD" points="32.923167 28.3880217 18.908013 28.3880217 18.908013 3.39762669 32.923167 3.39762669"></polygon>
                    <path d="M19.7976016,15.8933334 C19.7976016,20.9627501 22.1898118,25.4784413 25.9151012,28.3885309 C23.1908942,30.516534 19.7527922,31.7866669 16.0163004,31.7866669 C7.1705202,31.7866669 -1.42108547e-13,24.6710935 -1.42108547e-13,15.8933334 C-1.42108547e-13,7.11557341 7.1705202,-1.42108547e-14 16.0163004,-1.42108547e-14 C19.7527922,-1.42108547e-14 23.1908942,1.27013288 25.9151012,3.39813595 C22.1898118,6.30822562 19.7976016,10.8239168 19.7976016,15.8933334" id="path3558" fill="#EB001B" transform="translate(12.957551, 15.893333) scale(-1, 1) rotate(-180.000000) translate(-12.957551, -15.893333) "></path>
                    <path d="M51.8310986,15.8933334 C51.8310986,7.11557341 44.6605784,-1.42108547e-14 35.8147982,-1.42108547e-14 C32.0783064,-1.42108547e-14 28.6402044,1.27013288 25.914979,3.39813595 C29.6412868,6.30822562 32.033497,10.8239168 32.033497,15.8933334 C32.033497,20.9627501 29.6412868,25.4784413 25.914979,28.3885309 C28.6402044,30.516534 32.0783064,31.7866669 35.8147982,31.7866669 C44.6605784,31.7866669 51.8310986,24.6710935 51.8310986,15.8933334" id="path3562" fill="#0099DF" transform="translate(38.873039, 15.893333) scale(-1, 1) rotate(-180.000000) translate(-38.873039, -15.893333) "></path>
                    <path d="M37.6651407,39.7752672 C37.851507,39.7752672 38.1193449,39.7399015 38.3240423,39.6600761 L38.0388917,38.7951328 C37.8433598,38.8749582 37.6478279,38.9012299 37.4604432,38.9012299 C36.8555165,38.9012299 36.5530532,38.5132179 36.5530532,37.8160089 L36.5530532,35.4495402 L35.627332,35.4495402 L35.627332,39.6691702 L36.5438876,39.6691702 L36.5438876,39.1568731 C36.7842289,39.5277075 37.1315016,39.7752672 37.6651407,39.7752672 L37.6651407,39.7752672 Z" id="path3566-path" fill="#231F20" transform="translate(36.975687, 37.612404) scale(-1, 1) rotate(-180.000000) translate(-36.975687, -37.612404) "></path>
                    <path d="M34.2453698,37.7624552 L32.733053,37.7624552 L32.733053,35.8557402 C32.733053,35.4323626 32.8837755,35.1494372 33.3471453,35.1494372 C33.5874865,35.1494372 33.8899499,35.2292625 34.1649166,35.3879029 L34.4317361,34.6027849 C34.1384383,34.3996849 33.6760869,34.2753998 33.2758576,34.2753998 C32.1810828,34.2753998 31.7991846,34.8584282 31.7991846,35.8385626 L31.7991846,37.7624552 L30.9355856,37.7624552 L30.9355856,38.6011269 L31.7991846,38.6011269 L31.7991846,39.8813642 L32.733053,39.8813642 L32.733053,38.6011269 L34.2453698,38.6011269 L34.2453698,37.7624552 Z" id="path3566-path" fill="#231F20" transform="translate(32.683661, 37.078382) scale(-1, 1) rotate(-180.000000) translate(-32.683661, -37.078382) "></path>
                    <path d="M25.5706799,37.6654522 C25.5706799,37.7887268 25.5615144,37.9029074 25.5523488,38.0180985 L22.3943055,38.0180985 C22.5277153,38.7769448 23.0705199,39.0507761 23.666281,39.0507761 C24.0929886,39.0507761 24.5471928,38.8921358 24.9026127,38.6092104 L25.356817,39.2892418 C24.8404906,39.7217135 24.253895,39.8803538 23.6133245,39.8803538 C22.3403306,39.8803538 21.4329405,39.0063164 21.4329405,37.6654522 C21.4329405,36.3498492 22.3046867,35.4495402 23.550184,35.4495402 C24.7427247,35.4495402 25.5615144,36.3498492 25.5706799,37.6654522 Z M22.4024527,37.2946178 L24.6093149,37.2946178 C24.511549,36.6408581 24.1286324,36.2700238 23.5328713,36.2700238 C22.8739696,36.2700238 22.501237,36.6853178 22.4024527,37.2946178 Z" id="Combined-Shape" fill="#231F20"></path>
                    <path d="M29.6361134,38.6981298 C29.3784594,38.8577806 28.8539859,39.0608806 28.3111813,39.0608806 C27.8040205,39.0608806 27.5015571,38.8749582 27.5015571,38.5657612 C27.5015571,38.2838462 27.8213332,38.2040209 28.2215625,38.1514776 L28.6574356,38.0898403 C29.5831568,37.9564612 30.1432741,37.5684492 30.1432741,36.8267805 C30.1432741,36.0234745 29.4314159,35.4495402 28.2042498,35.4495402 C27.5097043,35.4495402 26.8691338,35.6263685 26.361973,35.9972029 L26.7978461,36.7125999 C27.109475,36.4741342 27.5728448,36.2710342 28.2134153,36.2710342 C28.8448203,36.2710342 29.1829275,36.4559462 29.1829275,36.7833313 C29.1829275,37.0207865 28.9425863,37.1541656 28.4354255,37.2238865 L27.9995524,37.2855238 C27.0473529,37.4189029 26.5310266,37.8422806 26.5310266,38.5303955 C26.5310266,39.3690672 27.2255721,39.8813642 28.3020157,39.8813642 C28.9782301,39.8813642 29.5923224,39.7308075 30.0363426,39.4397985 L29.6361134,38.6981298 L29.6361134,38.6981298 Z" id="path3566-path" fill="#231F20" transform="translate(28.252624, 37.665452) scale(-1, 1) rotate(-180.000000) translate(-28.252624, -37.665452) "></path>
                    <path d="M41.0472309,35.4495402 C41.3771909,35.4495402 41.6827095,35.5061252 41.9637866,35.6203058 C42.2448636,35.733476 42.48826,35.8900954 42.6929575,36.0891536 C42.8986733,36.2882118 43.0585613,36.5236462 43.1746584,36.7944462 C43.2907554,37.0662566 43.3488039,37.3613074 43.3488039,37.6795985 C43.3488039,37.9978895 43.2907554,38.2929403 43.1746584,38.5647507 C43.0585613,38.8355507 42.8986733,39.0719955 42.6929575,39.2710537 C42.48826,39.470112 42.2448636,39.6257209 41.9637866,39.7399015 C41.6827095,39.8530717 41.3771909,39.9096568 41.0472309,39.9096568 C40.7172709,39.9096568 40.4117524,39.8530717 40.1306753,39.7399015 C39.8495982,39.6257209 39.6082386,39.470112 39.4045596,39.2710537 C39.2008805,39.0719955 39.0409925,38.8355507 38.9248954,38.5647507 C38.8087984,38.2929403 38.7507499,37.9978895 38.7507499,37.6795985 C38.7507499,37.3613074 38.8087984,37.0662566 38.9248954,36.7944462 C39.0409925,36.5236462 39.2008805,36.2882118 39.4045596,36.0891536 C39.6082386,35.8900954 39.8495982,35.733476 40.1306753,35.6203058 C40.4117524,35.5061252 40.7172709,35.4495402 41.0472309,35.4495402 Z M41.0472309,36.3215566 C40.856791,36.3215566 40.6806087,36.3549014 40.5166471,36.4205805 C40.3537038,36.4872701 40.2121469,36.5802313 40.0929947,36.6994641 C39.9738424,36.8186969 39.8801501,36.9621805 39.8119176,37.1289044 C39.7436851,37.2956283 39.7100781,37.4795298 39.7100781,37.6795985 C39.7100781,37.8806776 39.7436851,38.0635686 39.8119176,38.2302925 C39.8801501,38.3970164 39.9738424,38.5405 40.0929947,38.6597328 C40.2121469,38.7789657 40.3537038,38.8719269 40.5166471,38.9386164 C40.6806087,39.005306 40.856791,39.0376403 41.0472309,39.0376403 C41.2376708,39.0376403 41.4148716,39.005306 41.5778148,38.9386164 C41.7417764,38.8719269 41.8843517,38.7789657 42.003504,38.6597328 C42.124693,38.5405 42.2183853,38.3970164 42.2876362,38.2302925 C42.3558687,38.0635686 42.3894757,37.8806776 42.3894757,37.6795985 C42.3894757,37.4795298 42.3558687,37.2956283 42.2876362,37.1289044 C42.2183853,36.9621805 42.124693,36.8186969 42.003504,36.6994641 C41.8843517,36.5802313 41.7417764,36.4872701 41.5778148,36.4205805 C41.4148716,36.3549014 41.2376708,36.3215566 41.0472309,36.3215566 Z" id="Combined-Shape" fill="#231F20"></path>
                    <path d="M20.4400052,37.6654522 L20.4400052,39.7752672 L19.5153024,39.7752672 L19.5153024,39.2629702 C19.2209862,39.6428985 18.776966,39.8813642 18.1720392,39.8813642 C16.9794985,39.8813642 16.0456302,38.9537731 16.0456302,37.6654522 C16.0456302,36.3761208 16.9794985,35.4495402 18.1720392,35.4495402 C18.776966,35.4495402 19.2209862,35.6880058 19.5153024,36.0679342 L19.5153024,35.5556372 L20.4400052,35.5556372 L20.4400052,37.6654522 Z M16.9968112,37.6654522 C16.9968112,38.4071209 17.4866593,39.0154105 18.2871179,39.0154105 C19.0519326,39.0154105 19.568259,38.4333925 19.568259,37.6654522 C19.568259,36.8975119 19.0519326,36.3144835 18.2871179,36.3144835 C17.4866593,36.3144835 16.9968112,36.9237835 16.9968112,37.6654522 Z" id="Combined-Shape" fill="#231F20"></path>
                    <path d="M15.2268405,35.4491935 L15.2268405,38.0975772 C15.2268405,39.0948892 14.5862699,39.7658265 13.5546357,39.7749205 C13.0118311,39.7840146 12.4506953,39.6162802 12.0596316,39.0241578 C11.7663338,39.4919951 11.302964,39.7749205 10.6532279,39.7749205 C10.2000421,39.7749205 9.75500339,39.6425519 9.40773064,39.1484429 L9.40773064,39.6688235 L8.48302786,39.6688235 L8.48302786,35.4491935 L9.4168962,35.4491935 L9.4168962,37.7883802 C9.4168962,38.5209548 9.82629105,38.9099772 10.457696,38.9099772 C11.0717883,38.9099772 11.3834172,38.5128712 11.3834172,37.7974742 L11.3834172,35.4491935 L12.3172856,35.4491935 L12.3172856,37.7883802 C12.3172856,38.5209548 12.7450115,38.9099772 13.3580854,38.9099772 C13.9905088,38.9099772 14.2929721,38.5128712 14.2929721,37.7974742 L14.2929721,35.4491935 L15.2268405,35.4491935 L15.2268405,35.4491935 Z" id="path3566-path" fill="#231F20" transform="translate(11.854934, 37.612230) scale(-1, 1) rotate(-180.000000) translate(-11.854934, -37.612230) "></path>
                </g>
            </g>
        </g>
    </g>
</svg>