<?xml version="1.0" encoding="UTF-8"?>
<svg width="85px" height="55px" viewBox="0 0 85 55" version="1.1" xmlns="http://www.w3.org/2000/svg" xmlns:xlink="http://www.w3.org/1999/xlink">
    <!-- Generator: Sketch 54.1 (76490) - https://sketchapp.com -->
    <title>payment_mastercard</title>
    <desc>Created with Sketch.</desc>
    <g id="Symbols" stroke="none" stroke-width="1" fill="none" fill-rule="evenodd">
        <g id="Payment-Icon-/-Mastercard">
            <g id="payment_mastercard">
                <rect id="Card" stroke="#CCCCCC" fill="#FFFFFF" x="0.5" y="0.5" width="84" height="54" rx="3"></rect>
                <g id="mastercard" transform="translate(17.000000, 8.000000)" fill-rule="nonzero">
                    <path d="M11.1981743,36.0793979 C11.1981743,36.8210654 11.6880216,37.4303645 12.488479,37.4303645 C13.2532925,37.4303645 13.7696181,36.847337 13.7696181,36.0793979 C13.7696181,35.3114587 13.2532925,34.7284312 12.488479,34.7284312 C11.6880216,34.7284312 11.1981743,35.3377303 11.1981743,36.0793979 L11.1981743,36.0793979 Z M14.641363,36.0793979 L14.641363,38.1892096 L13.7166616,38.1892096 L13.7166616,37.6769134 C13.4233643,38.0568412 12.9783263,38.2953065 12.3734005,38.2953065 C11.1808616,38.2953065 10.2459763,37.3677168 10.2459763,36.0793979 C10.2459763,34.7900684 11.1808616,33.8634892 12.3734005,33.8634892 C12.9783263,33.8634892 13.4233643,34.1019546 13.7166616,34.4818823 L13.7166616,33.9695861 L14.641363,33.9695861 L14.641363,36.0793979 Z M45.8897515,36.0793979 C45.8897515,36.8210654 46.3795988,37.4303645 47.1800561,37.4303645 C47.9458881,37.4303645 48.4611953,36.847337 48.4611953,36.0793979 C48.4611953,35.3114587 47.9458881,34.7284312 47.1800561,34.7284312 C46.3795988,34.7284312 45.8897515,35.3377303 45.8897515,36.0793979 L45.8897515,36.0793979 Z M49.3339586,36.0793979 L49.3339586,39.883728 L48.4082388,39.883728 L48.4082388,37.6769134 C48.1149414,38.0568412 47.6699035,38.2953065 47.0649777,38.2953065 C45.8724388,38.2953065 44.9375535,37.3677168 44.9375535,36.0793979 C44.9375535,34.7900684 45.8724388,33.8634892 47.0649777,33.8634892 C47.6699035,33.8634892 48.1149414,34.1019546 48.4082388,34.4818823 L48.4082388,33.9695861 L49.3339586,33.9695861 L49.3339586,36.0793979 Z M26.119677,37.4738137 C26.7154372,37.4738137 27.0983532,37.1029799 27.196119,36.4502316 L24.9892601,36.4502316 C25.0880443,37.0595307 25.4607763,37.4738137 26.119677,37.4738137 L26.119677,37.4738137 Z M26.1380081,38.2953065 C24.8914943,38.2953065 24.0197494,37.3949989 24.0197494,36.0793979 C24.0197494,34.7375252 24.9271381,33.8634892 26.2001301,33.8634892 C26.8406996,33.8634892 27.4272943,34.0221293 27.9436199,34.4546003 L27.4904347,35.1346306 C27.133997,34.8527161 26.6797934,34.6930656 26.2530865,34.6930656 C25.6573263,34.6930656 25.1145225,34.9668965 24.981113,35.7267521 L28.1391514,35.7267521 C28.148317,35.8409325 28.1574825,35.9561234 28.1574825,36.0793979 C28.148317,37.3949989 27.3295285,38.2953065 26.1380081,38.2953065 L26.1380081,38.2953065 Z M37.3036752,36.0793979 C37.3036752,36.8210654 37.7935225,37.4303645 38.5939799,37.4303645 C39.3587935,37.4303645 39.875119,36.847337 39.875119,36.0793979 C39.875119,35.3114587 39.3587935,34.7284312 38.5939799,34.7284312 C37.7935225,34.7284312 37.3036752,35.3377303 37.3036752,36.0793979 L37.3036752,36.0793979 Z M40.7468639,36.0793979 L40.7468639,38.1892096 L39.8221625,38.1892096 L39.8221625,37.6769134 C39.5278468,38.0568412 39.0838272,38.2953065 38.4789014,38.2953065 C37.2863625,38.2953065 36.3514772,37.3677168 36.3514772,36.0793979 C36.3514772,34.7900684 37.2863625,33.8634892 38.4789014,33.8634892 C39.0838272,33.8634892 39.5278468,34.1019546 39.8221625,34.4818823 L39.8221625,33.9695861 L40.7468639,33.9695861 L40.7468639,36.0793979 Z M32.081353,36.0793979 C32.081353,34.7991625 32.9795761,33.8634892 34.3503339,33.8634892 C34.9909034,33.8634892 35.4176103,34.0049517 35.879961,34.3666915 L35.4359414,35.108359 C35.0886692,34.8607997 34.7240843,34.7284312 34.3228372,34.7284312 C33.5845019,34.7375252 33.0416981,35.2669991 33.0416981,36.0793979 C33.0416981,36.8917966 33.5845019,37.4212705 34.3228372,37.4303645 C34.7240843,37.4303645 35.0886692,37.297996 35.4359414,37.0504367 L35.879961,37.7921042 C35.4176103,38.153844 34.9909034,38.2953065 34.3503339,38.2953065 C32.9795761,38.2953065 32.081353,37.3596332 32.081353,36.0793979 L32.081353,36.0793979 Z M44.0036866,38.2953065 C43.4700483,38.2953065 43.1227761,38.0477471 42.8824352,37.6769134 L42.8824352,38.1892096 L41.965881,38.1892096 L41.965881,33.9695861 L42.8916008,33.9695861 L42.8916008,36.3350408 C42.8916008,37.0332591 43.1940637,37.4212705 43.7989895,37.4212705 C43.9863739,37.4212705 44.1819055,37.3949989 44.377437,37.3151736 L44.6625872,38.1801156 C44.4578901,38.2599409 44.191071,38.2953065 44.0036866,38.2953065 L44.0036866,38.2953065 Z M19.2149685,37.8537415 C18.7699305,38.14475 18.1568576,38.2953065 17.4806443,38.2953065 C16.4031839,38.2953065 15.7096578,37.7830102 15.7096578,36.9443398 C15.7096578,36.2562259 16.2259834,35.8318385 17.177163,35.6994701 L17.6140538,35.6378328 C18.1212138,35.5671016 18.3605363,35.4347331 18.3605363,35.1962678 C18.3605363,34.8698937 18.0224297,34.6839716 17.3910256,34.6839716 C16.7504561,34.6839716 16.2881054,34.8870713 15.976477,35.1255366 L15.5406045,34.4111511 C16.0477645,34.0403173 16.6883341,33.8634892 17.3818601,33.8634892 C18.6100427,33.8634892 19.3218999,34.4374227 19.3218999,35.2407275 C19.3218999,35.982395 18.7617834,36.3704064 17.8360636,36.5027748 L17.4001912,36.5654225 C16.9999625,36.6179657 16.6791685,36.6967805 16.6791685,36.9797055 C16.6791685,37.288902 16.9816314,37.4738137 17.4887914,37.4738137 C18.0315952,37.4738137 18.5570863,37.270714 18.8147399,37.1120739 L19.2149685,37.8537415 L19.2149685,37.8537415 Z M31.1464677,38.2953065 C30.6128294,38.2953065 30.2655572,38.0477471 30.0262347,37.6769134 L30.0262347,38.1892096 L29.1096805,38.1892096 L29.1096805,33.9695861 L30.0343819,33.9695861 L30.0343819,36.3350408 C30.0343819,37.0332591 30.3368448,37.4212705 30.9417706,37.4212705 C31.129155,37.4212705 31.3246865,37.3949989 31.5202181,37.3151736 L31.8053683,38.1801156 C31.6006712,38.2599409 31.3338521,38.2953065 31.1464677,38.2953065 L31.1464677,38.2953065 Z M23.2549358,38.1892096 L21.7426214,38.1892096 L21.7426214,39.469445 L20.8077361,39.469445 L20.8077361,38.1892096 L19.9451567,38.1892096 L19.9451567,37.3505392 L20.8077361,37.3505392 L20.8077361,35.4256391 C20.8077361,34.4465167 21.1906521,33.8634892 22.2844068,33.8634892 C22.6856538,33.8634892 23.1480045,33.9867637 23.4413019,34.1898634 L23.1744828,34.9759906 C22.8984981,34.8173505 22.5960352,34.7375252 22.3556943,34.7375252 C21.8933436,34.7375252 21.7426214,35.0204502 21.7426214,35.4438272 L21.7426214,37.3505392 L23.2549358,37.3505392 L23.2549358,38.1892096 L23.2549358,38.1892096 Z M9.42820626,33.9695861 L9.42820626,36.6179657 C9.42820626,37.6152761 8.7876367,38.2862125 7.75498561,38.2953065 C7.21218184,38.3044005 6.65206537,38.1366664 6.25998384,37.5445449 C5.96668649,38.0123815 5.50433581,38.2953065 4.85460071,38.2953065 C4.40039717,38.2953065 3.95637757,38.162938 3.60910536,37.6688298 L3.60910536,38.1892096 L2.6833856,38.1892096 L2.6833856,33.9695861 L3.61725251,33.9695861 L3.61725251,36.3087692 C3.61725251,37.0413427 4.02664673,37.4303645 4.65906914,37.4303645 C5.27316047,37.4303645 5.58377051,37.0332591 5.58377051,36.3178632 L5.58377051,33.9695861 L6.51865581,33.9695861 L6.51865581,36.3087692 C6.51865581,37.0413427 6.94536272,37.4303645 7.55945405,37.4303645 C8.19085806,37.4303645 8.49332096,37.0332591 8.49332096,36.3178632 L8.49332096,33.9695861 L9.42820626,33.9695861 L9.42820626,33.9695861 Z" id="path3808" fill="#231F20" transform="translate(26.008672, 36.873609) scale(-1, 1) rotate(-180.000000) translate(-26.008672, -36.873609) "></path>
                    <polygon id="path3810" fill="#FF5F00" points="32.9236052 28.387978 18.9084728 28.387978 18.9084728 3.39762146 32.9236052 3.39762146"></polygon>
                    <path d="M19.7975711,15.893309 C19.7975711,20.9627178 22.1897776,25.4784021 25.9150613,28.3884873 C23.1908585,30.5164871 19.7527618,31.786618 16.0162758,31.786618 C7.17050917,31.786618 -4.26325641e-14,24.6710556 -4.26325641e-14,15.893309 C-4.26325641e-14,7.11556247 7.17050917,0 16.0162758,0 C19.7527618,0 23.1908585,1.27013093 25.9150613,3.39813073 C22.1897776,6.30821592 19.7975711,10.8239002 19.7975711,15.893309" id="path3814" fill="#EB001B" transform="translate(12.957531, 15.893309) scale(-1, 1) rotate(-180.000000) translate(-12.957531, -15.893309) "></path>
                    <path d="M51.8311003,15.893309 C51.8311003,7.11556247 44.6605912,0 35.8148246,0 C32.0783385,0 28.6402418,1.27013093 25.9150206,3.39813073 C29.6413227,6.30821592 32.0335292,10.8239002 32.0335292,15.893309 C32.0335292,20.9627178 29.6413227,25.4784021 25.9150206,28.3884873 C28.6402418,30.5164871 32.0783385,31.786618 35.8148246,31.786618 C44.6605912,31.786618 51.8311003,24.6710556 51.8311003,15.893309" id="path3822" fill="#F79E1B" transform="translate(38.873060, 15.893309) scale(-1, 1) rotate(-180.000000) translate(-38.873060, -15.893309) "></path>
                </g>
            </g>
        </g>
    </g>
</svg>