<?xml version="1.0" encoding="UTF-8"?>
<svg width="85px" height="55px" viewBox="0 0 85 55" version="1.1" xmlns="http://www.w3.org/2000/svg" xmlns:xlink="http://www.w3.org/1999/xlink">
    <!-- Generator: Sketch 54.1 (76490) - https://sketchapp.com -->
    <title>payment_visa</title>
    <desc>Created with Sketch.</desc>
    <defs>
        <linearGradient x1="0%" y1="49.9998546%" x2="99.9999776%" y2="49.9998546%" id="linearGradient-1">
            <stop stop-color="#231F5B" offset="0%"></stop>
            <stop stop-color="#024DA1" offset="100%"></stop>
        </linearGradient>
    </defs>
    <g id="Symbols" stroke="none" stroke-width="1" fill="none" fill-rule="evenodd">
        <g id="Payment-Icon-/-Visa">
            <g id="payment_visa">
                <rect id="Card" stroke="#CCCCCC" fill="#FFFFFF" x="0.5" y="0.5" width="84" height="54" rx="3"></rect>
                <g id="visa" transform="translate(6.000000, 17.000000)" fill="url(#linearGradient-1)">
                    <path d="M35.9008081,6.9685 C35.8626263,10.0051875 38.6852525,11.697125 40.8114141,12.706375 L40.8114141,12.706375 C42.9962626,13.740375 43.7280808,14.403125 43.7217172,15.327125 L43.7217172,15.327125 C43.7033333,16.7426875 41.9780808,17.36625 40.3631313,17.3903125 L40.3631313,17.3903125 C37.5426263,17.4329375 35.9064646,16.6491875 34.6026263,16.0579375 L34.6026263,16.0579375 L33.5865657,20.678625 C34.8953535,21.263 37.3149495,21.7738125 39.8236364,21.7985625 L39.8236364,21.7985625 C45.7170707,21.7985625 49.5713131,18.9688125 49.589697,14.584625 L49.589697,14.584625 C49.6151515,9.0206875 41.6768687,8.713375 41.7306061,6.227375 L41.7306061,6.227375 C41.7489899,5.471125 42.4892929,4.6674375 44.1106061,4.461875 L44.1106061,4.461875 C44.9124242,4.3594375 47.1290909,4.2810625 49.6406061,5.4044375 L49.6406061,5.4044375 L50.6262626,0.9343125 C49.2757576,0.457875 47.539899,-3.55271368e-15 45.3776768,-3.55271368e-15 L45.3776768,-3.55271368e-15 C39.8342424,-3.55271368e-15 35.9319192,2.8655 35.9008081,6.9685 L35.9008081,6.9685 Z M60.1031313,0.385 C59.0262626,0.385 58.1176768,0.9934375 57.7153535,1.9311875 L57.7153535,1.9311875 L49.2976768,21.4685625 L55.1875758,21.4685625 L56.3570707,18.3184375 L63.5536364,18.3184375 L64.2317172,21.4685625 L69.4194949,21.4685625 L64.8914141,0.385 L60.1031313,0.385 Z M60.9247475,6.081625 L62.6245455,13.9975 L57.9713131,13.9975 L60.9247475,6.081625 Z M28.7636364,0.385 L24.1231313,21.4685625 L29.7330303,21.4685625 L34.3721212,0.385 L28.7636364,0.385 Z M20.4640404,0.385 L14.6264646,14.7345 L12.2641414,2.534125 C11.9876768,1.1715 10.8931313,0.385 9.6769697,0.385 L9.6769697,0.385 L0.131515152,0.385 L4.26325641e-14,0.996875 C1.95787879,1.41075 4.18515152,2.0783125 5.53424242,2.7905625 L5.53424242,2.7905625 C6.36010101,3.22575 6.59484848,3.606625 6.86636364,4.642 L6.86636364,4.642 L11.3385859,21.4685625 L17.2680808,21.4685625 L26.3553535,0.385 L20.4640404,0.385 Z" id="Fill-1"></path>
                </g>
            </g>
        </g>
    </g>
</svg>