<?xml version="1.0" encoding="UTF-8"?>
<svg width="85px" height="55px" viewBox="0 0 85 55" version="1.1" xmlns="http://www.w3.org/2000/svg" xmlns:xlink="http://www.w3.org/1999/xlink">
    <!-- Generator: Sketch 60.1 (88133) - https://sketch.com -->
    <title>payment_bitcoin</title>
    <desc>Created with Sketch.</desc>
    <g id="Symbols" stroke="none" stroke-width="1" fill="none" fill-rule="evenodd">
        <g id="Cryptocurrencies-/-Bitcoin">
            <g id="payment_bitcoin">
                <rect id="Card" stroke="#CCCCCC" fill="#FFFFFF" x="0.5" y="0.5" width="84" height="54" rx="3"></rect>
                <g id="bitcoin" transform="translate(8.000000, 20.000000)" fill-rule="nonzero">
                    <path d="M21.1760809,0.17670005 L20.0402095,4.90696935 C20.2833679,4.79738957 20.5283376,4.71248788 20.7728544,4.65067945 C21.0175977,4.58977664 21.2802269,4.55808001 21.5609685,4.55808001 C22.1484882,4.55808001 22.6560871,4.6633581 23.0826332,4.87006541 C23.5112169,5.07881036 23.8648607,5.36000476 24.1485456,5.71364859 C24.4283816,6.06910366 24.6366737,6.48455593 24.771158,6.9606846 C24.9047366,7.4381717 24.9717524,7.95143071 24.9717524,8.50091444 C24.9717524,9.34495043 24.8171181,10.1423471 24.5049063,10.89401 C24.1926945,11.646805 23.7690916,12.2997556 23.2302489,12.8567107 C22.691859,13.4129865 22.0561152,13.8515321 21.3230174,14.1755169 C20.5910516,14.4997282 19.7952398,14.6618338 18.9407892,14.6618338 C18.8303038,14.6618338 18.6360487,14.6586641 18.3616465,14.653004 C18.0872442,14.6473439 17.7718627,14.6190433 17.4186717,14.571272 C17.0632166,14.5216894 16.6873852,14.4483343 16.2904981,14.3500748 C15.8938374,14.2536265 15.5171003,14.118463 15.1623244,13.9468484 L18.3347043,0.617056809 L21.1760809,0.17670005 Z M43.4526992,4.50351652 C44.0035413,4.50351652 44.4955183,4.55558956 44.9284037,4.65996203 C45.3631004,4.76524013 45.756365,4.90130923 46.1120465,5.07201823 L45.1760903,7.20022056 C44.9315734,7.10105539 44.677774,7.01366325 44.4153711,6.93442168 C44.1527419,6.85359527 43.8321531,6.81465369 43.4529256,6.81465369 C42.5470812,6.81465369 41.8309637,7.1268655 41.2980075,7.74925148 C40.767089,8.37209027 40.4997052,9.21046615 40.4997052,10.2621151 C40.4997052,10.8854067 40.6341895,11.3893831 40.9040637,11.77495 C41.1725794,12.1605168 41.6686317,12.3522814 42.3888244,12.3522814 C42.7442795,12.3522814 43.0872823,12.3151511 43.4157953,12.2427017 C43.7467986,12.1693466 44.0390869,12.0769736 44.2965088,11.9678466 L44.4991408,14.1494804 C44.1559116,14.2826062 43.7773632,14.402827 43.3621374,14.5081051 C42.9460059,14.6097608 42.4506329,14.662513 41.8762446,14.662513 C41.1180159,14.662513 40.4761592,14.5515748 39.9511271,14.3330945 C39.4258687,14.111218 38.9918513,13.8166658 38.6499805,13.4435512 C38.3062984,13.0695309 38.0595175,12.6327966 37.9069209,12.1315371 C37.7543242,11.6307303 37.6764411,11.1045662 37.6764411,10.5555353 C37.6764411,9.72485718 37.8109254,8.9414976 38.0796675,8.20817341 C38.3479568,7.47417001 38.7344293,6.83231324 39.2359153,6.28147109 C39.73559,5.73334578 40.3443918,5.29910195 41.060962,4.9803244 C41.7741362,4.6633581 42.5726649,4.50351652 43.4526992,4.50351652 Z M51.344481,4.50306371 C51.9804512,4.50306371 52.5401232,4.60200248 53.0239496,4.79738957 C53.505512,4.99232384 53.9021727,5.26876374 54.2157429,5.62240758 C54.5259171,5.97786265 54.7616041,6.39512615 54.9200873,6.87872617 C55.0797025,7.36051495 55.1584912,7.89641441 55.1584912,8.48257567 C55.1584912,9.21499424 55.0421193,9.94945045 54.8111867,10.6841331 C54.5800277,11.4151932 54.2370249,12.0762944 53.7842159,12.663814 C53.3323125,13.2499753 52.7672069,13.7297265 52.0884462,14.1023883 C51.4105911,14.4750501 50.6245147,14.6620602 49.7320281,14.6620602 C49.0842848,14.6620602 48.5216696,14.5633478 48.0444089,14.3679607 C47.5685067,14.1725737 47.1743364,13.8983978 46.8625774,13.5429427 C46.5503656,13.1892989 46.3167162,12.7702242 46.1566482,12.2873034 C45.9965802,11.804609 45.9196027,11.2700679 45.9196027,10.6843595 C45.9196027,9.94967686 46.0375594,9.21522065 46.2759634,8.48280208 C46.5132353,7.74879868 46.8652943,7.08928236 47.3312347,6.5031211 C47.7935527,5.91605422 48.3638657,5.43607667 49.0353814,5.06183003 C49.706218,4.69007383 50.4778045,4.50306371 51.344481,4.50306371 Z M35.4499792,1.9186563 L34.7519741,4.76139125 L37.7962091,4.76139125 L37.2464989,6.99781494 L34.2206027,6.99781494 L33.4146027,10.371242 C33.340342,10.6524364 33.2982308,10.9150657 33.2864578,11.1591297 C33.2730999,11.4043258 33.3041173,11.614882 33.3774724,11.7921567 C33.4503746,11.9698842 33.5814628,12.106859 33.7716426,12.2037601 C33.9609168,12.3022461 34.231923,12.3518286 34.587378,12.3518286 C34.8801191,12.3518286 35.1653887,12.3239809 35.4411494,12.2687382 C35.7153253,12.2144011 35.9931236,12.138782 36.274318,12.0398432 L36.4767236,14.1309152 C36.1099483,14.2653995 35.7128348,14.3810922 35.2849303,14.4784461 C34.8563466,14.5771585 34.3489741,14.6247035 33.7625864,14.6247035 C32.9194561,14.6247035 32.2658263,14.4995018 31.8001122,14.2502304 C31.3350773,13.9991478 31.006338,13.656145 30.8095925,13.2219011 C30.6155638,12.7892421 30.5288509,12.290473 30.5530762,11.728537 C30.5782071,11.1652426 30.6631088,10.5731949 30.8095925,9.94967686 L32.6074707,2.35901306 L35.4499792,1.9186563 Z M30.2295442,4.76139125 L27.9190862,14.4055439 L25.2051754,14.4055439 L27.4970682,4.76139125 L30.2295442,4.76139125 Z M60.4262448,4.76139125 L58.1166925,14.4055439 L55.4005177,14.4055439 L57.6924105,4.76139125 L60.4262448,4.76139125 Z M66.2665754,4.53996764 C67.6979047,4.53996764 68.6845755,4.95677834 69.2293047,5.78790927 C69.7735812,6.6190402 69.8677654,7.75649643 69.5145744,9.19824031 L68.26618,14.4055439 L65.5343832,14.4055439 L66.7442889,9.30782009 C66.8180968,8.98949536 66.8760563,8.68181164 66.9188468,8.38114645 C66.96209,8.08319813 66.9595996,7.8205689 66.9091114,7.59325878 C66.8608872,7.36866551 66.7472322,7.18482506 66.5708631,7.04241662 C66.3917771,6.90227224 66.1212237,6.83186044 65.754222,6.83186044 C65.4003518,6.83186044 65.0403686,6.86989639 64.6729141,6.94325145 L62.8940539,14.4053175 L60.1611252,14.4053175 L62.3810213,5.20084239 C62.5870494,5.14061879 62.8170764,5.06816935 63.0672534,4.98938058 C63.318336,4.91059182 63.5988511,4.83723676 63.912195,4.77112664 C64.2221427,4.70297889 64.5719377,4.64773619 64.956599,4.60494574 C65.3412602,4.56124967 65.7795793,4.53996764 66.2665754,4.53996764 Z M20.8835662,6.83186044 C20.7114988,6.83186044 20.4898488,6.86468909 20.2149937,6.92332786 C19.9392331,6.98558909 19.6924521,7.11486607 19.4712549,7.30934753 L18.2618021,12.3328107 C18.3347043,12.3457157 18.3992296,12.3579416 18.4542459,12.3694882 C18.5081302,12.3819404 18.5676746,12.3907702 18.6269925,12.3968831 C18.6897066,12.4039017 18.7614768,12.4075241 18.8481897,12.4075241 L19.0518029,12.4076919 C19.0909708,12.4077254 19.1328557,12.4077506 19.1776083,12.4077506 C19.6055128,12.4077506 20.0087392,12.3024725 20.387514,12.0957651 C20.7674207,11.8888314 21.0952544,11.6094483 21.3698831,11.2614646 C21.6445118,10.911896 21.8618601,10.5181786 22.0203433,10.0782746 C22.1788264,9.63837066 22.2589736,9.17944873 22.2589736,8.70196164 C22.2589736,8.11534757 22.1609404,7.65778407 21.9655534,7.32700709 C21.7701663,6.99758853 21.4085983,6.83186044 20.8835662,6.83186044 Z M51.0884175,6.81442729 C50.6860967,6.81442729 50.3304152,6.93125201 50.0259011,7.1619582 C49.7202551,7.39538125 49.4635124,7.68880148 49.2565786,8.04267172 C49.0473809,8.39812679 48.8922938,8.7857313 48.7874685,9.20707008 C48.6835488,9.62931448 48.6326078,10.0284656 48.6326078,10.4076932 C48.6326078,11.0196645 48.7313202,11.496246 48.9253489,11.8392488 C49.1220944,12.1804404 49.4755118,12.352055 49.9892236,12.352055 C50.3929028,12.352055 50.7467731,12.2361359 51.0530984,12.0029393 C51.3569332,11.7713275 51.6139023,11.4776809 51.8224209,11.1231314 C52.0302602,10.7694876 52.1867057,10.380751 52.291531,9.95873304 C52.3940923,9.53784706 52.4463917,9.13643188 52.4463917,8.75788355 C52.4463917,8.14749701 52.3481321,7.6697835 52.1522922,7.32723349 C51.9566788,6.9860419 51.6016765,6.81442729 51.0884175,6.81442729 Z M29.6429301,0.360087698 C30.0214784,0.360087698 30.3631228,0.47283714 30.6689953,0.698788835 C30.9737358,0.925872552 31.1270116,1.27159223 31.1270116,1.73504225 C31.1270116,1.99223776 31.075165,2.23358497 30.9710189,2.45998947 C30.867552,2.68639397 30.7305773,2.88132825 30.5589627,3.04705635 C30.3889329,3.21165242 30.1885649,3.34251422 29.9635189,3.44054737 C29.7364351,3.53948614 29.4959936,3.58635188 29.2397037,3.58635188 C28.8609289,3.58635188 28.5174733,3.47360243 28.2127328,3.24765074 C27.9055019,3.02305747 27.7533581,2.67733779 27.7533581,2.21139732 C27.7533581,1.95510743 27.8054311,1.71466584 27.9086716,1.48780853 C28.0134969,1.26140403 28.1504716,1.06646975 28.3220862,0.900741652 C28.4934744,0.736371983 28.6920312,0.605057371 28.9175301,0.506118602 C29.1443874,0.408764666 29.3857346,0.360087698 29.6429301,0.360087698 Z M59.8382723,0.360087698 C60.2177263,0.360087698 60.5605027,0.47283714 60.865696,0.698788835 C61.1711156,0.925872552 61.3252971,1.27159223 61.3252971,1.73504225 C61.3252971,1.99223776 61.2705072,2.23358497 61.167946,2.45998947 C61.0653847,2.68639397 60.9275044,2.88132825 60.756569,3.04705635 C60.5845016,3.21165242 60.386624,3.34251422 60.1611252,3.44054737 C59.933815,3.53948614 59.6929206,3.58635188 59.4352723,3.58635188 C59.056724,3.58635188 58.7134948,3.47360243 58.4092071,3.24765074 C58.103561,3.02305747 57.9500588,2.67733779 57.9500588,2.21139732 C57.9500588,1.95510743 58.002811,1.71466584 58.1062779,1.48780853 C58.2097447,1.26140403 58.3476251,1.06646975 58.5192397,0.900741652 C58.6897223,0.736371983 58.8900903,0.605057371 59.1151364,0.506118602 C59.3406352,0.408764666 59.5819824,0.360087698 59.8382723,0.360087698 Z" id="Combined-Shape" fill="#4D4D4D"></path>
                    <path d="M9.32652194,0.390425901 C13.2080008,1.35807875 15.5698525,5.28981936 14.6021997,9.17129817 C13.6345468,13.0525506 9.70348544,15.4146288 5.82178022,14.4467495 C1.94165984,13.4790967 -0.420418347,9.54780886 0.547687311,5.66678286 C1.51488735,1.78507764 5.44594875,-0.577226948 9.32652194,0.390425901 Z M7.27620276,2.69816701 L6.95040668,4.00361538 C6.77743363,3.96422099 6.60763026,3.92527942 6.44280778,3.8843002 L6.4437134,3.88022492 L5.34746279,3.60650188 L5.13600098,4.45551877 C5.13600098,4.45551877 5.72578471,4.59068225 5.71333247,4.59905922 C6.03527967,4.67943282 6.09346563,4.89247946 6.08373024,5.06137722 L5.71287966,6.54908121 C5.7350673,6.55474132 5.76382067,6.56289189 5.7955173,6.57557054 C5.76902798,6.56900481 5.74072741,6.56175986 5.71152123,6.55474132 L5.19169649,8.63879478 C5.15230211,8.73660153 5.05245772,8.88331164 4.82741164,8.82761614 C4.8353358,8.83916277 4.24962735,8.68339647 4.24962735,8.68339647 L3.8550043,9.59331617 L4.88944648,9.8511909 C5.08189031,9.89941506 5.27048526,9.94990326 5.45613695,9.99744821 L5.12717121,11.3182921 L5.9211718,11.516396 L6.24696788,10.2095892 C6.4638634,10.2684544 6.67441959,10.3227915 6.88044768,10.3739589 L6.55578363,11.6746528 L7.35068984,11.8727567 L7.67965558,10.5544033 C9.03513935,10.8109196 10.0544124,10.7074527 10.483449,9.48147234 C10.8291686,8.49434871 10.4662422,7.92494138 9.75306803,7.55363799 C10.27244,7.43387001 10.6636669,7.09222562 10.7680394,6.38652278 C10.9122591,5.4224924 10.1782557,4.90425249 9.17460452,4.55853281 L9.5001742,3.25263164 L8.70526798,3.0545277 L8.38830168,4.32601539 C8.17933032,4.27394235 7.96469885,4.22481258 7.75142581,4.17613561 L8.07065616,2.89627095 L7.27620276,2.69816701 Z M6.9418033,7.50314979 C7.48064602,7.63763406 9.2085652,7.90388576 8.95182249,8.93334704 C8.7061736,9.92047068 7.04413814,9.38683526 6.50529542,9.2530302 L6.9418033,7.50314979 Z M7.53724715,5.11503508 C7.98598088,5.22687891 9.43112082,5.43562386 9.19769778,6.37225929 C8.97355732,7.27017956 7.5902258,6.81397448 7.14149208,6.70213066 L7.53724715,5.11503508 Z" id="Combined-Shape" fill="#F7931A"></path>
                </g>
            </g>
        </g>
    </g>
</svg>