<?xml version="1.0" encoding="UTF-8"?>
<svg width="85px" height="55px" viewBox="0 0 85 55" version="1.1" xmlns="http://www.w3.org/2000/svg" xmlns:xlink="http://www.w3.org/1999/xlink">
    <!-- Generator: Sketch 60.1 (88133) - https://sketch.com -->
    <title>payment_discover</title>
    <desc>Created with Sketch.</desc>
    <defs>
        <linearGradient x1="50%" y1="0%" x2="50%" y2="100%" id="linearGradient-1">
            <stop stop-color="#F6A000" offset="0%"></stop>
            <stop stop-color="#E47E02" offset="62.3917863%"></stop>
            <stop stop-color="#D36002" offset="100%"></stop>
        </linearGradient>
    </defs>
    <g id="Symbols" stroke="none" stroke-width="1" fill="none" fill-rule="evenodd">
        <g id="USA-/-Discover">
            <g id="payment_discover">
                <rect id="Card" stroke="#CCCCCC" fill="#FFFFFF" x="0.5" y="0.5" width="84" height="54" rx="3"></rect>
                <path d="M84,31 C84,31 61.0439924,46.8888844 19,54 C46.7591977,54 67.7591977,54 82,54 C83.1751404,54 84,53.0880413 84,52 C84,47.09776 84,40.09776 84,31 Z" id="Fill-2" fill="#EE7D00"></path>
                <g id="Group" transform="translate(10.000000, 17.000000)">
                    <path d="M5.34003086,10.5047623 C4.70367284,11.0797315 3.8767284,11.3305031 2.56790123,11.3305031 L2.0242284,11.3305031 L2.0242284,4.46257099 L2.56790123,4.46257099 C3.8767284,4.46257099 4.67117284,4.69689198 5.34003086,5.30275617 C6.04058642,5.92627469 6.46188272,6.89325 6.46188272,7.88791049 C6.46188272,8.8849784 6.04058642,9.88124383 5.34003086,10.5047623 M2.97354938,2.70315741 L-7.10542736e-15,2.70315741 L-7.10542736e-15,13.0883117 L2.95790123,13.0883117 C4.53074074,13.0883117 5.66623457,12.717571 6.66330247,11.8894228 C7.84814815,10.9092068 8.5487037,9.43145988 8.5487037,7.90315741 C8.5487037,4.83812654 6.25885802,2.70315741 2.97354938,2.70315741" id="Fill-1" fill="#1D1D1B"></path>
                    <polygon id="Fill-3" fill="#1D1D1B" points="9.48073148 13.0886728 11.5065648 13.0886728 11.5065648 2.70311728 9.48073148 2.70311728"></polygon>
                    <path d="M16.459966,6.68833951 C15.2442253,6.23855556 14.8875278,5.94204321 14.8875278,5.38071605 C14.8875278,4.7267037 15.5234846,4.22957407 16.396571,4.22957407 C17.0032377,4.22957407 17.5023735,4.47914198 18.0299969,5.07056173 L19.0900586,3.68269136 C18.2189784,2.92074691 17.1769722,2.53154938 16.0382685,2.53154938 C14.2006142,2.53154938 12.7991019,3.80747531 12.7991019,5.50710494 C12.7991019,6.93790741 13.4515093,7.67056173 15.3541636,8.3550679 C16.1474043,8.63512963 16.5510463,8.82130247 16.7544722,8.94648765 C17.1593179,9.21090123 17.3619414,9.58525309 17.3619414,10.0213951 C17.3619414,10.862784 16.6930833,11.4863025 15.7891019,11.4863025 C14.822929,11.4863025 14.044534,11.0028148 13.5782994,10.1008395 L12.2694722,11.3611173 C13.2027438,12.7313333 14.3237932,13.3384012 15.8653364,13.3384012 C17.970213,13.3384012 19.4471574,11.9384938 19.4471574,9.92830864 C19.4471574,8.27803086 18.7642562,7.53133333 16.459966,6.68833951" id="Fill-5" fill="#1D1D1B"></path>
                    <path d="M20.0861636,7.90299691 C20.0861636,10.9555895 22.4831389,13.3224722 25.5678302,13.3224722 C26.439713,13.3224722 27.1868117,13.1511451 28.1076451,12.7174105 L28.1076451,10.3328735 C27.2979537,11.1433673 26.5805463,11.4703735 25.6621204,11.4703735 C23.6218426,11.4703735 22.173787,9.9910216 22.173787,7.88775 C22.173787,5.89401543 23.6675833,4.32117593 25.5678302,4.32117593 C26.5340031,4.32117593 27.2654537,4.66583642 28.1076451,5.48957099 L28.1076451,3.10623765 C27.2185093,2.65525 26.4874599,2.46827469 25.6155772,2.46827469 C22.546534,2.46827469 20.0861636,4.88330556 20.0861636,7.90299691" id="Fill-6" fill="#1D1D1B"></path>
                    <polygon id="Fill-7" fill="#1D1D1B" points="44.1696667 9.67898148 41.4003457 2.70311728 39.1871358 2.70311728 43.5942963 13.3550926 44.6844506 13.3550926 49.1710556 2.70311728 46.9750988 2.70311728"></polygon>
                    <polygon id="Fill-8" fill="#1D1D1B" points="50.0870741 13.0884722 55.8319506 13.0884722 55.8319506 11.3302623 52.1113025 11.3302623 52.1113025 8.52683642 55.6951296 8.52683642 55.6951296 6.76782407 52.1113025 6.76782407 52.1113025 4.46273148 55.8319506 4.46273148 55.8319506 2.70291667 50.0870741 2.70291667"></polygon>
                    <path d="M59.7888056,7.48430864 L59.1969846,7.48430864 L59.1969846,4.33903086 L59.8209043,4.33903086 C61.082787,4.33903086 61.7684969,4.86745679 61.7684969,5.87816667 C61.7684969,6.92217901 61.082787,7.48430864 59.7888056,7.48430864 M63.8529105,5.76903086 C63.8529105,3.82464815 62.5135895,2.7027963 60.1776019,2.7027963 L57.1735586,2.7027963 L57.1735586,13.0883519 L59.1969846,13.0883519 L59.1969846,8.91631481 L59.4613981,8.91631481 L62.2652253,13.0883519 L64.7564907,13.0883519 L61.4868302,8.71329012 C63.0127253,8.4031358 63.8529105,7.35912346 63.8529105,5.76903086" id="Fill-9" fill="#1D1D1B"></path>
                    <path d="M34.2938796,2.40740741 C31.2420895,2.40740741 28.7692809,4.88021605 28.7692809,7.93160494 L28.7692809,7.93160494 C28.7692809,10.9829938 31.2420895,13.4566049 34.2938796,13.4566049 L34.2938796,13.4566049 C37.3448673,13.4566049 39.8184784,10.9829938 39.8184784,7.93160494 L39.8184784,7.93160494 C39.8184784,4.88021605 37.3448673,2.40740741 34.2938796,2.40740741 Z" id="Fill-11" fill="url(#linearGradient-1)" transform="translate(34.293880, 7.932006) rotate(122.600000) translate(-34.293880, -7.932006) "></path>
                </g>
            </g>
        </g>
    </g>
</svg>