<?xml version="1.0" encoding="UTF-8"?>
<svg width="85px" height="55px" viewBox="0 0 85 55" version="1.1" xmlns="http://www.w3.org/2000/svg" xmlns:xlink="http://www.w3.org/1999/xlink">
    <!-- Generator: Sketch 60.1 (88133) - https://sketch.com -->
    <title>payment_payoneer</title>
    <desc>Created with Sketch.</desc>
    <g id="Symbols" stroke="none" stroke-width="1" fill="none" fill-rule="evenodd">
        <g id="Online-/-Payoneer">
            <g id="payment_payoneer">
                <rect id="Card" stroke="#CCCCCC" fill="#FFFFFF" x="0.5" y="0.5" width="84" height="54" rx="3"></rect>
                <g id="payoneer" transform="translate(8.000000, 14.000000)" fill-rule="nonzero">
                    <path d="M18.4822822,2.72417886 C18.7510265,4.78862412 19.6672005,9.18625901 20.0825326,11.0430382 C20.1924735,11.5683112 20.31463,12.0202904 20.4245709,12.2035252 C20.9987066,13.192993 21.4629014,11.8737025 21.4629014,11.8737025 C23.2586023,6.51103112 20.4245709,3.05400147 19.5206126,2.12561189 C19.3618091,1.95459275 19.0808491,1.74692666 18.8243204,1.67363274 C18.4578509,1.56369187 18.3967726,1.77135796 18.3967726,1.9423771 C18.4089883,2.11339623 18.4700665,2.58980668 18.4822822,2.72417886 Z M43.4877228,1.05063447 C43.8419767,1.30716317 45.0757576,2.60202233 43.4877228,2.79747277 C41.2156114,3.06621713 36.8912704,3.22502061 29.7206824,9.22290597 C27.0088076,11.4950173 20.9254127,17.6150592 17.6638335,25.2254107 C17.6271865,25.3231359 17.5172456,25.3719985 17.4195204,25.3475672 C17.1263447,25.2620576 16.6010717,24.9444507 16.869816,23.7228854 C17.2362856,22.0737724 20.5345118,13.4861687 29.2564876,5.91246415 C32.1027347,3.44490235 38.8946374,-2.36974822 43.4877228,1.05063447 Z" id="Shape" fill="#FF4800"></path>
                    <path d="M14.9886056,10.5666277 C15.9658578,10.5666277 17.0164039,10.7498625 17.7126961,10.9697443 L16.7720908,15.6361235 C16.5155621,16.955414 16.3689743,18.6533897 16.4056213,19.7161514 L14.4389012,19.7161514 C14.4389012,19.1786627 14.5121951,18.4701549 14.585489,17.7127844 L14.5488421,17.7127844 C13.6693151,19.3496819 12.4721812,19.9238175 11.3361255,19.9238175 C9.73587501,19.9238175 8.6853289,18.677821 8.6853289,16.8699044 C8.6853289,13.8159913 10.8230681,10.5666277 14.9886056,10.5666277 Z M51.7210725,10.5666277 C53.4801265,10.5666277 54.6039665,11.5805269 54.6039665,13.0830521 C54.6039665,15.3795948 52.197483,16.112534 48.7404533,16.03924 C48.7038064,16.356847 48.7771003,16.955414 48.9847664,17.3096679 C49.3390203,17.9204505 49.9742342,18.2258418 50.8171142,18.2258418 C51.8310134,18.2258418 52.6372464,17.9693131 53.284676,17.6394905 L53.4923421,19.203094 C52.6128151,19.6672888 51.4156812,19.9238175 50.3284881,19.9238175 C47.8487107,19.9238175 46.6515767,18.396861 46.6515767,16.2102592 C46.6515767,13.5106 48.6305124,10.5666277 51.7210725,10.5666277 Z M60.0521475,10.5666277 C61.8112014,10.5666277 62.9350415,11.5805269 62.9350415,13.0830521 C62.9350415,15.3795948 60.5285579,16.112534 57.0715283,16.03924 C57.0348813,16.356847 57.1081752,16.955414 57.3158413,17.3096679 C57.6700953,17.9204505 58.3053092,18.2258418 59.1481892,18.2258418 C60.1620884,18.2258418 60.9683214,17.9693131 61.615751,17.6394905 L61.8234171,19.203094 C60.9438901,19.6672888 59.7467562,19.9238175 58.6595631,19.9238175 C56.1797857,19.9238175 54.9826517,18.396861 54.9826517,16.2102592 C54.9826517,13.5106 56.9615874,10.5666277 60.0521475,10.5666277 Z M32.8356738,10.5544121 C35.2421573,10.5666277 36.4881539,12.2890347 36.4881539,14.2557548 C36.4881539,17.3096679 34.374846,19.9116019 31.3209329,19.9116019 C29.0610372,19.9116019 27.6684528,18.3479984 27.6684528,16.2102592 C27.6684528,13.1807774 29.7817607,10.5544121 32.8356738,10.5544121 Z M43.4632915,10.5666277 C44.745935,10.5666277 45.7476185,11.3362138 45.7476185,13.0341895 C45.7476185,13.4373061 45.6743245,14.0603043 45.588815,14.5000678 L44.6115628,19.7161514 L42.4616079,19.7161514 L43.4144288,14.6588713 C43.4755071,14.3290487 43.5243697,13.9381478 43.5243697,13.5961095 C43.5243697,12.8387391 43.2434097,12.313466 42.4005297,12.313466 C41.4232775,12.313466 40.1772809,13.4861687 39.7863801,15.5872609 L39.016794,19.7283671 L36.8912704,19.7283671 L36.8912704,19.7161514 L38.0517574,13.5350313 C38.2716392,12.4722695 38.4060113,11.5316643 38.5159522,10.7620782 L40.421594,10.7620782 L40.2139279,12.3623286 L40.2505749,12.3623286 C41.0812392,11.1651947 42.2172949,10.5666277 43.4632915,10.5666277 Z M69.067299,10.5666277 C69.2383181,10.5666277 69.3971216,10.591059 69.5437095,10.591059 L69.1161616,12.6921513 C69.0062207,12.66772 68.8596329,12.66772 68.7130451,12.66772 C67.1860885,12.66772 66.2088363,14.2068922 65.8667981,16.1247496 L65.1827215,19.7283671 L63.0694136,19.7283671 L63.0694136,19.7161514 L64.1199598,14.1946765 C64.3642728,12.9242487 64.4864293,11.5438799 64.5719389,10.7620782 L66.4287181,10.7620782 C66.3798555,11.3728608 66.3187772,11.9958591 66.221052,12.6432887 L66.2699146,12.6432887 C66.8806972,11.4461547 67.8457338,10.5666277 69.067299,10.5666277 Z M5.30159317,7.23175461 C6.46208015,7.23175461 7.67142974,7.47606766 8.47766281,8.11128159 C9.1983863,8.66098595 9.61371849,9.46721901 9.61371849,10.5788434 C9.61371849,12.0447217 8.9174263,13.2418556 8.03789932,13.9381478 C7.04843147,14.7321652 5.63141578,15.1108505 4.15332184,15.1108505 C3.71355835,15.1108505 3.32265747,15.0497722 2.99283485,15.0131252 L2.10109222,19.7161514 L3.55271368e-14,19.7161514 L2.32097397,7.52493027 C3.07834442,7.34169549 4.20218445,7.23175461 5.30159317,7.23175461 Z M32.5669295,12.2157408 C30.8689538,12.2157408 29.8672703,14.5000678 29.8672703,16.1736122 C29.8672703,17.4073931 30.5146998,18.2747044 31.6141086,18.2747044 C33.214359,18.2747044 34.2771208,16.0636713 34.2771208,14.2801861 C34.2771208,13.3640121 33.849573,12.2157408 32.5669295,12.2157408 Z M14.4144699,12.2157408 C12.4477499,12.2157408 10.9085776,14.4389896 10.9085776,16.4790035 C10.9085776,17.4196088 11.2628316,18.1891949 12.1912212,18.1891949 C13.2051203,18.1891949 14.4144699,16.9431983 14.8420177,14.6588713 L15.2939969,12.313466 C15.0741151,12.2523878 14.7931551,12.2157408 14.4144699,12.2157408 Z M51.4523282,12.1668782 C50.1086064,12.1668782 49.2290794,13.3640121 48.9725507,14.4512052 C51.1835838,14.4634209 52.6005995,14.1702452 52.6005995,13.0952678 C52.5883838,12.5089165 52.1364047,12.1668782 51.4523282,12.1668782 Z M59.7711875,12.1668782 C58.4274657,12.1668782 57.5479387,13.3640121 57.29141,14.4512052 C59.5024431,14.4634209 60.9194588,14.1702452 60.9194588,13.0952678 C60.9194588,12.5089165 60.455264,12.1668782 59.7711875,12.1668782 Z M5.32602447,8.95416161 C4.78853576,8.95416161 4.38541923,8.99080857 4.12889053,9.06410248 L3.33487312,13.2662869 C3.68912704,13.3395808 3.99451835,13.3762278 4.45871315,13.3762278 C6.25441406,13.3762278 7.47597931,12.2157408 7.47597931,10.7498625 C7.47597931,9.43057206 6.53537407,8.95416161 5.32602447,8.95416161 Z" id="Combined-Shape" fill="#000000"></path>
                </g>
            </g>
        </g>
    </g>
</svg>