<svg width="85" height="55" viewBox="0 0 85 55" fill="none" xmlns="http://www.w3.org/2000/svg">
<rect x="0.5" y="0.5" width="84" height="54" rx="2.5" fill="white" stroke="#AAAAAA"/>
<path d="M1 3C1 1.89543 1.89543 1 3 1H82C83.1046 1 84 1.89543 84 3V52C84 53.1046 83.1046 54 82 54H3C1.89543 54 1 53.1046 1 52V3Z" fill="#F0F0F0"/>
<path fill-rule="evenodd" clip-rule="evenodd" d="M18 6H4V7H18V6ZM23 9H4V10H23V9ZM4 12H15V13H4V12ZM15 15H4V16H15V15ZM4 26H17V27H4V26ZM10 44H5V45H10V44ZM20 26H29V27H20V26ZM81 6H60V7H81V6ZM73 9H60V10H73V9ZM60 12H69V13H60V12Z" fill="#666666"/>
<rect x="33" y="3" width="1" height="45" fill="#AAAAAA"/>
<path fill-rule="evenodd" clip-rule="evenodd" d="M37 38V30.275H44.725V38H37ZM43.475 36.825V31.525H38.175V36.825H43.475ZM39.1251 35.8749V32.425H42.575V35.8749H39.1251ZM45.675 38V33.5251H46.7749V30.4249H45.675V29.1749H46.7749V27.125H43.475V26.0251H42.425V24.7749H43.475V23.675H44.725V24.925H43.6251V25.875H46.925V26.9749H48.0251V30.275H50.075V29.325H48.9749V26.0251H47.875V23.675H48.9749V22.725H47.875V21.6251H46.925V22.725H45.675V21.475H46.7749V20.575H45.675V17.1251H46.7749V16.175H45.675V15H46.925V16.025H47.875V15H49.125V17.1251H51.325V20.575H50.2251V21.475H51.325V23.675H52.4249V24.7749H54.425V23.675H57.8749V24.7749H58.825V23.675H60V27.125H58.975V28.075H60V29.325H58.825V28.2251H57.7251V26.0251H56.775V29.325H55.6749V31.3749H58.975V32.425H60V33.6749H58.825V32.575H57.8749V33.6749H56.625V32.575H55.6749V33.6749H54.575V35.7251H55.6749V36.825H57.8749V38H54.425V36.975H53.525V38H52.275V36.975H49.125V38H45.675ZM50.075 19.3251V18.375H49.125V19.3251H50.075ZM50.075 22.5749V21.6251H49.125V22.5749H50.075ZM53.3749 28.075V26.9749H54.575V28.075H55.5251V26.0251H52.4249V27.125H51.1749V24.925H49.125V25.875H50.2251V28.075H53.3749ZM48.9749 36.825V35.8749H48.0251V36.825H48.9749ZM52.275 30.275V29.325H51.325V30.275H52.275ZM47.875 35.7251V34.625H50.075V33.5251H51.325V34.625H52.4249V35.7251H53.3749V33.5251H54.425V32.575H53.3749V31.3749H54.425V28.2251H53.525V30.4249H52.4249V32.575H50.075V31.525H49.125V33.6749H46.925V35.7251H47.875ZM51.1749 31.3749V30.4249H50.2251V31.3749H51.1749ZM58.825 36.975V35.7251H60V36.975H58.825ZM56.625 35.8749V34.625H57.8749V35.8749H56.625ZM38.025 29.325V28.2251H37V25.875H39.2749V26.9749H42.575V28.075H44.725V29.325H42.425V28.2251H41.4749V29.325H40.225V28.2251H39.2749V29.325H38.025ZM40.225 26.0251V24.925H37V23.675H41.4749V26.0251H40.225ZM45.675 24.925V23.675H46.925V24.925H45.675ZM37 22.725V15H44.725V22.725H37ZM43.475 21.475V16.175H38.175V21.475H43.475ZM39.1251 20.575V17.1251H42.575V20.575H39.1251ZM52.275 22.725V15H60V22.725H52.275ZM58.825 21.475V16.175H53.525V21.475H58.825ZM54.425 20.575V17.1251H57.8749V20.575H54.425Z" fill="#333333"/>
</svg>
