<?xml version="1.0" encoding="UTF-8"?>
<svg width="85px" height="55px" viewBox="0 0 85 55" version="1.1" xmlns="http://www.w3.org/2000/svg" xmlns:xlink="http://www.w3.org/1999/xlink">
    <!-- Generator: Sketch 60.1 (88133) - https://sketch.com -->
    <title>payment_bvr</title>
    <desc>Created with Sketch.</desc>
    <g id="Symbols" stroke="none" stroke-width="1" fill="none" fill-rule="evenodd">
        <g id="Payment-Icon-/-BVR">
            <g id="payment_bvr">
                <rect id="Card" stroke="#CCCCCC" fill="#FFFFFF" x="0.5" y="0.5" width="84" height="54" rx="3"></rect>
                <path d="M3,1 L82,1 C83.1045695,1 84,1.8954305 84,3 L84,48 L84,48 L1,48 L1,3 C1,1.8954305 1.8954305,1 3,1 Z" id="Rectangle" fill="#FAD6D7"></path>
                <path d="M76,3 C79.3137085,3 82,5.6862915 82,9 C82,12.3137085 79.3137085,15 76,15 C72.6862915,15 70,12.3137085 70,9 C70,5.6862915 72.6862915,3 76,3 Z M76,4 C73.2385763,4 71,6.23857625 71,9 C71,11.7614237 73.2385763,14 76,14 C78.7614237,14 81,11.7614237 81,9 C81,6.23857625 78.7614237,4 76,4 Z" id="Oval" fill="#D17272" fill-rule="nonzero"></path>
                <path d="M81,44 L81,45 L37,45 L37,44 L81,44 Z M81,40 L81,41 L37,41 L37,40 L81,40 Z M81,36 L81,37 L37,37 L37,36 L81,36 Z M81,32 L81,33 L37,33 L37,32 L81,32 Z M58,26 L58,27 L37,27 L37,26 L58,26 Z" id="Combined-Shape" fill="#D17272"></path>
                <path d="M34,3 L34,17 L67,17 L67,3 L68,3 L68,17 L84,17 L84,18 L34,18 L34,48 L33,48 L33,3 L34,3 Z M10,44 L10,45 L5,45 L5,44 L10,44 Z M17,26 L17,27 L4,27 L4,26 L17,26 Z M29,26 L29,27 L20,27 L20,26 L29,26 Z M15,15 L15,16 L4,16 L4,15 L15,15 Z M15,12 L15,13 L4,13 L4,12 L15,12 Z M46,12 L46,13 L37,13 L37,12 L46,12 Z M23,9 L23,10 L4,10 L4,9 L23,9 Z M50,9 L50,10 L37,10 L37,9 L50,9 Z M18,6 L18,7 L4,7 L4,6 L18,6 Z M58,6 L58,7 L37,7 L37,6 L58,6 Z" id="Combined-Shape" fill="#666666"></path>
                <path d="M6,31 L6,35 L4,35 L4,31 L6,31 Z M10,31 L10,35 L8,35 L8,31 L10,31 Z M14,31 L14,35 L12,35 L12,31 L14,31 Z M18,31 L18,35 L16,35 L16,31 L18,31 Z M22,31 L22,35 L20,35 L20,31 L22,31 Z M26,31 L26,35 L24,35 L24,31 L26,31 Z M30,31 L30,35 L28,35 L28,31 L30,31 Z" id="Combined-Shape" fill="#FFFFFF"></path>
            </g>
        </g>
    </g>
</svg>